<svg viewBox="0 0 316 279" fill="none" xmlns="http://www.w3.org/2000/svg">
<path d="M164.227 269.549C238.783 269.549 299.222 209.208 299.222 134.774C299.222 60.3405 238.783 0 164.227 0C89.6716 0 29.2323 60.3405 29.2323 134.774C29.2323 209.208 89.6716 269.549 164.227 269.549Z" fill="#F2F2F2"/>
<path d="M76.8482 229.994C68.1525 243.308 70.5351 260.241 70.5351 260.241C70.5351 260.241 87.0164 255.589 95.7121 242.275C104.408 228.962 102.025 212.029 102.025 212.029C102.025 212.029 85.544 216.681 76.8482 229.994Z" fill="#3F3D56"/>
<path d="M70.4889 260.086C70.4889 260.086 70.2772 260.053 69.8876 259.974C69.5768 259.911 69.1489 259.821 68.6264 259.697C63.9558 258.598 51.5382 254.881 43.4197 245.11C33.2586 232.875 33.6864 215.781 33.6864 215.781C33.6864 215.781 49.2231 218.301 59.4608 229.289C59.9044 229.761 60.336 230.25 60.7557 230.757C69.5971 241.403 70.4213 255.727 70.4866 259.268C70.4956 259.798 70.4889 260.086 70.4889 260.086Z" fill="#0F9D58"/>
<path d="M64.222 229.994C72.9178 243.308 70.5351 260.241 70.5351 260.241C70.5351 260.241 54.0539 255.589 45.3581 242.275C36.6624 228.962 39.045 212.029 39.045 212.029C39.045 212.029 55.5263 216.681 64.222 229.994Z" stroke="#3F3D56" stroke-width="2" stroke-miterlimit="10"/>
<path opacity="0.1" d="M70.4866 259.268C70.2569 259.544 70.0542 259.78 69.8876 259.974C69.5182 260.394 69.3088 260.615 69.3088 260.615C69.3088 260.615 69.0543 260.295 68.6264 259.697C66.2776 256.428 58.7221 244.804 59.3054 231.377C59.3369 230.674 59.3887 229.977 59.4607 229.289C59.9044 229.761 60.336 230.25 60.7557 230.757C69.5971 241.403 70.4213 255.727 70.4866 259.268Z" fill="black"/>
<path d="M83.3801 232.348C82.6928 248.227 70.886 260.615 70.886 260.615C70.886 260.615 60.1937 247.257 60.881 231.378C61.5683 215.498 73.3751 203.111 73.3751 203.111C73.3751 203.111 84.0674 216.469 83.3801 232.348Z" fill="#0F9D58"/>
<path d="M70.886 260.165L73.4818 203.759" stroke="#3F3D56" stroke-width="2" stroke-miterlimit="10"/>
<path d="M158 279C245.261 279 316 273.235 316 266.123C316 259.011 245.261 253.246 158 253.246C70.739 253.246 0 259.011 0 266.123C0 273.235 70.739 279 158 279Z" fill="#3F3D56"/>
<path d="M183.111 111.628C179.172 112.956 175.603 116.062 174.797 120.134C174.423 122.022 174.652 123.984 174.337 125.882C173.607 130.285 170.146 133.647 166.953 136.77C163.761 139.893 160.464 143.522 160.231 147.978C159.975 152.858 163.52 157.43 162.907 162.278C162.194 167.91 156.236 171.56 154.763 177.043C153.779 180.704 154.984 184.648 156.967 187.881C160.746 194.042 167.205 198.224 174.083 200.466C180.962 202.708 188.287 203.18 195.522 203.256C204.332 203.348 213.897 202.593 220.517 196.788C224.298 193.442 226.672 188.794 227.164 183.774C227.793 177.05 224.982 170.102 226.921 163.632C228.141 159.56 231.201 155.841 230.745 151.616C230.298 147.484 226.684 144.556 224.204 141.218C221.889 138.102 220.484 134.421 219.107 130.793L214.396 118.378C213.47 115.938 212.453 113.371 210.389 111.769C206.526 108.771 200.313 109.36 195.795 109.978C191.604 110.552 187.141 110.269 183.111 111.628Z" fill="#2F2E41"/>
<path d="M184.586 147.791C184.586 147.791 186.675 154.567 171.012 162.385C155.35 170.204 172.578 178.543 172.578 178.543L190.851 182.713C190.851 182.713 209.646 180.107 211.735 176.98C213.823 173.852 217.478 163.428 216.433 161.864C215.652 160.751 214.779 159.705 213.823 158.737C213.823 158.737 201.293 156.652 201.815 150.918C202.337 145.185 184.586 147.791 184.586 147.791Z" fill="#FFB9B9"/>
<path opacity="0.1" d="M184.586 147.791C184.586 147.791 186.675 154.567 171.012 162.385C155.35 170.204 172.578 178.543 172.578 178.543L190.851 182.713C190.851 182.713 209.646 180.107 211.735 176.98C213.823 173.852 217.478 163.428 216.433 161.864C215.652 160.751 214.779 159.705 213.823 158.737C213.823 158.737 201.293 156.652 201.815 150.918C202.337 145.185 184.586 147.791 184.586 147.791Z" fill="black"/>
<path d="M194.767 158.476C203.994 158.476 211.474 151.009 211.474 141.797C211.474 132.585 203.994 125.118 194.767 125.118C185.54 125.118 178.06 132.585 178.06 141.797C178.06 151.009 185.54 158.476 194.767 158.476Z" fill="#FFB9B9"/>
<path d="M192.94 176.98C192.94 176.98 172.819 175.511 172.438 161.651C172.438 161.651 165.269 160.822 163.181 162.907C161.093 164.992 154.306 166.555 154.306 171.768C154.306 176.98 165.791 192.617 165.791 192.617C165.791 192.617 172.056 213.466 169.446 217.114C166.836 220.763 166.313 230.145 166.313 230.145C166.313 230.145 192.418 228.06 196.594 230.145C200.771 232.23 217.477 232.23 218.522 230.145C219.566 228.06 217.477 201.999 217.477 201.999C217.477 201.999 222.176 195.744 221.132 188.447L233.662 173.852C233.662 173.852 228.963 159.779 221.654 159.779C221.654 159.779 211.735 157.173 211.474 158.476C211.213 159.779 216.433 174.374 192.94 176.98Z" fill="#4384F4"/>
<path d="M145.952 222.848C145.952 222.848 150.651 230.145 162.659 231.709C174.667 233.272 176.755 229.103 175.711 228.06C174.667 227.018 162.137 222.327 162.137 222.327L154.828 216.593L145.952 222.848Z" fill="#FFB9B9"/>
<path d="M231.574 216.593L218 224.412C218 224.412 200.249 223.369 207.036 228.581C213.823 233.794 226.353 231.709 226.353 231.709L238.361 225.975L231.574 216.593Z" fill="#FFB9B9"/>
<path d="M163.703 230.145C163.703 230.145 151.173 260.898 166.313 265.589C181.454 270.28 223.22 269.237 232.618 262.982C242.015 256.728 244.626 248.388 243.06 245.782C241.493 243.176 231.052 235.879 223.742 235.357C216.433 234.836 163.703 230.145 163.703 230.145Z" fill="#2F2E41"/>
<path opacity="0.05" d="M163.703 230.145C163.703 230.145 151.173 260.898 166.313 265.589C181.454 270.28 223.22 269.237 232.618 262.982C242.015 256.728 244.626 248.388 243.06 245.782C241.493 243.176 231.052 235.879 223.742 235.357C216.433 234.836 163.703 230.145 163.703 230.145Z" fill="black"/>
<path d="M222.848 232.056C222.848 232.056 267.075 216.072 266.553 235.357C266.031 254.643 238.361 259.855 238.361 259.855L230.007 260.898L184.064 262.461C184.064 262.461 185.63 254.122 181.976 253.079C181.976 253.079 193.984 249.952 194.506 249.431C195.028 248.909 224.787 238.485 226.875 237.963C228.963 237.442 235.228 233.272 239.927 233.794C239.927 233.794 245.148 229.624 250.891 230.666L234.706 231.709L222.848 232.056Z" fill="#2F2E41"/>
<path opacity="0.1" d="M222.848 232.056C222.848 232.056 267.075 216.072 266.553 235.357C266.031 254.643 238.361 259.855 238.361 259.855L230.007 260.898L184.064 262.461C184.064 262.461 185.63 254.122 181.976 253.079C181.976 253.079 193.984 249.952 194.506 249.431C195.028 248.909 224.787 238.485 226.875 237.963C228.963 237.442 235.228 233.272 239.927 233.794C239.927 233.794 245.148 229.624 250.891 230.666L234.706 231.709L222.848 232.056Z" fill="black"/>
<path d="M215.034 234.644L220.61 247.346L254.545 235.357L257.156 228.581L248.28 227.018L230.437 230.145L222.698 232.23L215.034 234.644Z" fill="#2F2E41"/>
<path opacity="0.1" d="M215.034 234.644L220.61 247.346L254.545 235.357L257.156 228.581L248.28 227.018L230.437 230.145L222.698 232.23L215.034 234.644Z" fill="black"/>
<path d="M142.82 249.952C142.82 249.952 152.739 262.461 164.225 265.589C175.711 268.716 181.976 264.546 181.976 264.546L178.321 249.952L176.755 240.57L169.968 235.879L156.394 229.624L140.209 224.412C140.209 224.412 133.422 223.369 133.422 224.412C133.422 225.454 139.687 241.091 139.687 241.091L142.82 249.952Z" fill="#2F2E41"/>
<path d="M154.828 256.728C154.828 256.728 156.916 271.843 159.526 272.886C162.137 273.928 169.968 271.843 172.056 270.801C174.145 269.758 181.243 264.949 181.243 264.949C181.243 264.949 156.394 255.685 154.828 256.728Z" fill="#F2F2F2"/>
<path d="M202.337 258.291L212.257 259.855L211.212 271.843L197.377 268.488L202.337 258.291Z" fill="#FFB9B9"/>
<path d="M208.552 261.628C208.552 261.628 203.903 267.152 208.602 270.28L211.735 272.886C211.735 272.886 222.176 274.971 223.22 276.013C224.265 277.056 228.441 274.45 228.441 274.45C228.441 274.45 228.963 258.813 228.441 257.77C227.919 256.728 221.654 255.685 221.132 256.728C220.61 257.77 214.345 259.334 210.69 258.291L208.552 261.628Z" fill="#F2F2F2"/>
<path d="M166.835 233.794C166.835 233.794 130.29 212.423 124.547 220.242C118.804 228.06 112.539 239.006 129.245 247.346C145.952 255.685 198.16 272.886 198.16 272.886C198.16 272.886 205.992 260.898 205.992 257.77C205.992 257.77 178.321 245.261 173.623 244.218C168.924 243.176 150.129 231.188 147.518 230.145C144.908 229.103 141.253 225.975 141.253 225.975L166.835 233.794Z" fill="#2F2E41"/>
<path d="M156.394 169.161L154.305 170.725C154.305 170.725 149.607 182.713 149.085 189.489C148.563 196.265 142.298 217.114 142.82 219.721C143.342 222.327 143.864 224.412 146.996 227.018C146.996 227.018 151.173 217.636 158.482 219.199L167.358 186.883L156.394 169.161Z" fill="#4384F4"/>
<path d="M229.485 169.161L233.662 173.852C233.662 173.852 236.272 180.107 236.272 181.671C236.272 183.235 241.493 206.169 242.015 207.211C242.537 208.254 244.626 221.284 242.015 224.412C239.405 227.539 234.706 229.624 234.706 229.624C234.706 229.624 237.839 218.678 227.919 218.157L228.963 213.987L219.566 182.713L229.485 169.161Z" fill="#4384F4"/>
<path d="M157.438 205.047V232.502C157.438 234.236 158.121 235.9 159.34 237.135C160.559 238.37 162.215 239.077 163.952 239.102L221.463 239.953C223.189 239.978 224.857 239.329 226.11 238.143C227.362 236.957 228.101 235.329 228.167 233.607L229.225 206.148C229.259 205.269 229.116 204.392 228.806 203.568C228.495 202.744 228.022 201.991 227.416 201.352C226.809 200.714 226.081 200.203 225.273 199.849C224.466 199.496 223.596 199.307 222.714 199.295L164.145 198.447C163.269 198.435 162.399 198.596 161.586 198.922C160.773 199.248 160.033 199.732 159.408 200.346C158.784 200.96 158.289 201.692 157.95 202.499C157.612 203.306 157.438 204.172 157.438 205.047Z" fill="#3F3D56"/>
<path d="M195.747 141.262C205.678 141.262 213.73 136.934 213.73 131.595C213.73 126.256 205.678 121.927 195.747 121.927C185.815 121.927 177.764 126.256 177.764 131.595C177.764 136.934 185.815 141.262 195.747 141.262Z" fill="#2F2E41"/>
<path d="M192.679 223.63C194.985 223.63 196.855 221.763 196.855 219.46C196.855 217.157 194.985 215.29 192.679 215.29C190.372 215.29 188.502 217.157 188.502 219.46C188.502 221.763 190.372 223.63 192.679 223.63Z" fill="#FFC107"/>
<path d="M306.362 218.615V266.232C306.362 267.051 305.921 267.167 305.204 267.564C302.786 268.903 296.826 271.289 289.671 267.513C288.936 267.125 288.484 266.994 288.484 266.165V218.92C288.484 218.92 297.576 222.581 306.362 218.615Z" fill="#DC4437"/>
<path d="M297.423 220.478C302.36 220.478 306.362 219.63 306.362 218.583C306.362 217.536 302.36 216.688 297.423 216.688C292.486 216.688 288.484 217.536 288.484 218.583C288.484 219.63 292.486 220.478 297.423 220.478Z" fill="#3F3D56" stroke="#FFC107" stroke-miterlimit="10"/>
<g opacity="0.8">
<path opacity="0.8" d="M305.548 238.589C305.658 238.589 305.748 238.499 305.748 238.388C305.748 238.278 305.658 238.188 305.548 238.188C305.437 238.188 305.347 238.278 305.347 238.388C305.347 238.499 305.437 238.589 305.548 238.589Z" fill="black"/>
<path opacity="0.8" d="M304.53 238.873C304.64 238.873 304.73 238.783 304.73 238.672C304.73 238.562 304.64 238.472 304.53 238.472C304.419 238.472 304.329 238.562 304.329 238.672C304.329 238.783 304.419 238.873 304.53 238.873Z" fill="black"/>
<path opacity="0.8" d="M303.272 239.273C303.382 239.273 303.472 239.183 303.472 239.073C303.472 238.962 303.382 238.873 303.272 238.873C303.161 238.873 303.071 238.962 303.071 239.073C303.071 239.183 303.161 239.273 303.272 239.273Z" fill="black"/>
<path opacity="0.8" d="M301.016 239.758C301.127 239.758 301.217 239.669 301.217 239.558C301.217 239.447 301.127 239.358 301.016 239.358C300.905 239.358 300.816 239.447 300.816 239.558C300.816 239.669 300.905 239.758 301.016 239.758Z" fill="black"/>
<path opacity="0.8" d="M298.638 240.046C298.749 240.046 298.839 239.956 298.839 239.845C298.839 239.735 298.749 239.645 298.638 239.645C298.528 239.645 298.438 239.735 298.438 239.845C298.438 239.956 298.528 240.046 298.638 240.046Z" fill="black"/>
<path opacity="0.8" d="M296.176 240.159C296.286 240.159 296.376 240.069 296.376 239.958C296.376 239.848 296.286 239.758 296.176 239.758C296.065 239.758 295.975 239.848 295.975 239.958C295.975 240.069 296.065 240.159 296.176 240.159Z" fill="black"/>
<path opacity="0.8" d="M292.641 239.674C292.752 239.674 292.841 239.584 292.841 239.473C292.841 239.363 292.752 239.273 292.641 239.273C292.53 239.273 292.44 239.363 292.44 239.473C292.44 239.584 292.53 239.674 292.641 239.674Z" fill="black"/>
<path opacity="0.8" d="M293.812 239.958C293.923 239.958 294.013 239.869 294.013 239.758C294.013 239.648 293.923 239.558 293.812 239.558C293.701 239.558 293.611 239.648 293.611 239.758C293.611 239.869 293.701 239.958 293.812 239.958Z" fill="black"/>
<path opacity="0.8" d="M290.453 239.273C290.564 239.273 290.653 239.183 290.653 239.073C290.653 238.962 290.564 238.873 290.453 238.873C290.342 238.873 290.252 238.962 290.252 239.073C290.252 239.183 290.342 239.273 290.453 239.273Z" fill="black"/>
<path opacity="0.8" d="M291.507 239.473C291.617 239.473 291.707 239.384 291.707 239.273C291.707 239.163 291.617 239.073 291.507 239.073C291.396 239.073 291.306 239.163 291.306 239.273C291.306 239.384 291.396 239.473 291.507 239.473Z" fill="black"/>
<path opacity="0.8" d="M289.298 238.873C289.409 238.873 289.499 238.783 289.499 238.672C289.499 238.562 289.409 238.472 289.298 238.472C289.187 238.472 289.098 238.562 289.098 238.672C289.098 238.783 289.187 238.873 289.298 238.873Z" fill="black"/>
<path opacity="0.8" d="M302.12 239.558C302.231 239.558 302.321 239.468 302.321 239.358C302.321 239.247 302.231 239.158 302.12 239.158C302.009 239.158 301.919 239.247 301.919 239.358C301.919 239.468 302.009 239.558 302.12 239.558Z" fill="black"/>
<path opacity="0.8" d="M299.793 239.958C299.904 239.958 299.994 239.869 299.994 239.758C299.994 239.648 299.904 239.558 299.793 239.558C299.682 239.558 299.592 239.648 299.592 239.758C299.592 239.869 299.682 239.958 299.793 239.958Z" fill="black"/>
<path opacity="0.8" d="M297.268 240.159C297.379 240.159 297.468 240.069 297.468 239.958C297.468 239.848 297.379 239.758 297.268 239.758C297.157 239.758 297.067 239.848 297.067 239.958C297.067 240.069 297.157 240.159 297.268 240.159Z" fill="black"/>
<path opacity="0.8" d="M294.971 240.159C295.082 240.159 295.171 240.069 295.171 239.958C295.171 239.848 295.082 239.758 294.971 239.758C294.86 239.758 294.77 239.848 294.77 239.958C294.77 240.069 294.86 240.159 294.971 240.159Z" fill="black"/>
</g>
<g opacity="0.8">
<path opacity="0.8" d="M305.548 239.574C305.658 239.574 305.748 239.484 305.748 239.374C305.748 239.263 305.658 239.173 305.548 239.173C305.437 239.173 305.347 239.263 305.347 239.374C305.347 239.484 305.437 239.574 305.548 239.574Z" fill="black"/>
<path opacity="0.8" d="M304.53 239.858C304.64 239.858 304.73 239.768 304.73 239.658C304.73 239.547 304.64 239.457 304.53 239.457C304.419 239.457 304.329 239.547 304.329 239.658C304.329 239.768 304.419 239.858 304.53 239.858Z" fill="black"/>
<path opacity="0.8" d="M303.272 240.258C303.382 240.258 303.472 240.169 303.472 240.058C303.472 239.948 303.382 239.858 303.272 239.858C303.161 239.858 303.071 239.948 303.071 240.058C303.071 240.169 303.161 240.258 303.272 240.258Z" fill="black"/>
<path opacity="0.8" d="M301.016 240.743C301.127 240.743 301.217 240.654 301.217 240.543C301.217 240.433 301.127 240.343 301.016 240.343C300.905 240.343 300.816 240.433 300.816 240.543C300.816 240.654 300.905 240.743 301.016 240.743Z" fill="black"/>
<path opacity="0.8" d="M298.638 241.031C298.749 241.031 298.839 240.941 298.839 240.831C298.839 240.72 298.749 240.63 298.638 240.63C298.528 240.63 298.438 240.72 298.438 240.831C298.438 240.941 298.528 241.031 298.638 241.031Z" fill="black"/>
<path opacity="0.8" d="M296.176 241.144C296.286 241.144 296.376 241.054 296.376 240.944C296.376 240.833 296.286 240.744 296.176 240.744C296.065 240.744 295.975 240.833 295.975 240.944C295.975 241.054 296.065 241.144 296.176 241.144Z" fill="black"/>
<path opacity="0.8" d="M292.641 240.659C292.752 240.659 292.841 240.569 292.841 240.459C292.841 240.348 292.752 240.258 292.641 240.258C292.53 240.258 292.44 240.348 292.44 240.459C292.44 240.569 292.53 240.659 292.641 240.659Z" fill="black"/>
<path opacity="0.8" d="M293.812 240.944C293.923 240.944 294.013 240.854 294.013 240.743C294.013 240.633 293.923 240.543 293.812 240.543C293.701 240.543 293.611 240.633 293.611 240.743C293.611 240.854 293.701 240.944 293.812 240.944Z" fill="black"/>
<path opacity="0.8" d="M290.453 240.258C290.564 240.258 290.653 240.169 290.653 240.058C290.653 239.948 290.564 239.858 290.453 239.858C290.342 239.858 290.252 239.948 290.252 240.058C290.252 240.169 290.342 240.258 290.453 240.258Z" fill="black"/>
<path opacity="0.8" d="M291.507 240.459C291.617 240.459 291.707 240.369 291.707 240.258C291.707 240.148 291.617 240.058 291.507 240.058C291.396 240.058 291.306 240.148 291.306 240.258C291.306 240.369 291.396 240.459 291.507 240.459Z" fill="black"/>
<path opacity="0.8" d="M289.298 239.858C289.409 239.858 289.499 239.768 289.499 239.658C289.499 239.547 289.409 239.457 289.298 239.457C289.187 239.457 289.098 239.547 289.098 239.658C289.098 239.768 289.187 239.858 289.298 239.858Z" fill="black"/>
<path opacity="0.8" d="M302.12 240.543C302.231 240.543 302.321 240.454 302.321 240.343C302.321 240.232 302.231 240.143 302.12 240.143C302.009 240.143 301.919 240.232 301.919 240.343C301.919 240.454 302.009 240.543 302.12 240.543Z" fill="black"/>
<path opacity="0.8" d="M299.793 240.944C299.904 240.944 299.994 240.854 299.994 240.743C299.994 240.633 299.904 240.543 299.793 240.543C299.682 240.543 299.592 240.633 299.592 240.743C299.592 240.854 299.682 240.944 299.793 240.944Z" fill="black"/>
<path opacity="0.8" d="M297.268 241.144C297.379 241.144 297.468 241.054 297.468 240.944C297.468 240.833 297.379 240.744 297.268 240.744C297.157 240.744 297.067 240.833 297.067 240.944C297.067 241.054 297.157 241.144 297.268 241.144Z" fill="black"/>
<path opacity="0.8" d="M294.971 241.144C295.082 241.144 295.171 241.054 295.171 240.944C295.171 240.833 295.082 240.744 294.971 240.744C294.86 240.744 294.77 240.833 294.77 240.944C294.77 241.054 294.86 241.144 294.971 241.144Z" fill="black"/>
</g>
<g opacity="0.8">
<path opacity="0.8" d="M305.548 240.559C305.658 240.559 305.748 240.47 305.748 240.359C305.748 240.248 305.658 240.159 305.548 240.159C305.437 240.159 305.347 240.248 305.347 240.359C305.347 240.47 305.437 240.559 305.548 240.559Z" fill="black"/>
<path opacity="0.8" d="M304.53 240.843C304.64 240.843 304.73 240.754 304.73 240.643C304.73 240.532 304.64 240.443 304.53 240.443C304.419 240.443 304.329 240.532 304.329 240.643C304.329 240.754 304.419 240.843 304.53 240.843Z" fill="black"/>
<path opacity="0.8" d="M303.272 241.244C303.382 241.244 303.472 241.154 303.472 241.044C303.472 240.933 303.382 240.843 303.272 240.843C303.161 240.843 303.071 240.933 303.071 241.044C303.071 241.154 303.161 241.244 303.272 241.244Z" fill="black"/>
<path opacity="0.8" d="M301.016 241.729C301.127 241.729 301.217 241.639 301.217 241.529C301.217 241.418 301.127 241.328 301.016 241.328C300.905 241.328 300.816 241.418 300.816 241.529C300.816 241.639 300.905 241.729 301.016 241.729Z" fill="black"/>
<path opacity="0.8" d="M298.638 242.016C298.749 242.016 298.839 241.927 298.839 241.816C298.839 241.705 298.749 241.616 298.638 241.616C298.528 241.616 298.438 241.705 298.438 241.816C298.438 241.927 298.528 242.016 298.638 242.016Z" fill="black"/>
<path opacity="0.8" d="M296.176 242.129C296.286 242.129 296.376 242.04 296.376 241.929C296.376 241.819 296.286 241.729 296.176 241.729C296.065 241.729 295.975 241.819 295.975 241.929C295.975 242.04 296.065 242.129 296.176 242.129Z" fill="black"/>
<path opacity="0.8" d="M292.641 241.644C292.752 241.644 292.841 241.555 292.841 241.444C292.841 241.333 292.752 241.244 292.641 241.244C292.53 241.244 292.44 241.333 292.44 241.444C292.44 241.555 292.53 241.644 292.641 241.644Z" fill="black"/>
<path opacity="0.8" d="M293.812 241.929C293.923 241.929 294.013 241.839 294.013 241.729C294.013 241.618 293.923 241.529 293.812 241.529C293.701 241.529 293.611 241.618 293.611 241.729C293.611 241.839 293.701 241.929 293.812 241.929Z" fill="black"/>
<path opacity="0.8" d="M290.453 241.244C290.564 241.244 290.653 241.154 290.653 241.044C290.653 240.933 290.564 240.843 290.453 240.843C290.342 240.843 290.252 240.933 290.252 241.044C290.252 241.154 290.342 241.244 290.453 241.244Z" fill="black"/>
<path opacity="0.8" d="M291.507 241.444C291.617 241.444 291.707 241.354 291.707 241.244C291.707 241.133 291.617 241.044 291.507 241.044C291.396 241.044 291.306 241.133 291.306 241.244C291.306 241.354 291.396 241.444 291.507 241.444Z" fill="black"/>
<path opacity="0.8" d="M289.298 240.843C289.409 240.843 289.499 240.754 289.499 240.643C289.499 240.532 289.409 240.443 289.298 240.443C289.187 240.443 289.098 240.532 289.098 240.643C289.098 240.754 289.187 240.843 289.298 240.843Z" fill="black"/>
<path opacity="0.8" d="M302.12 241.529C302.231 241.529 302.321 241.439 302.321 241.328C302.321 241.218 302.231 241.128 302.12 241.128C302.009 241.128 301.919 241.218 301.919 241.328C301.919 241.439 302.009 241.529 302.12 241.529Z" fill="black"/>
<path opacity="0.8" d="M299.793 241.929C299.904 241.929 299.994 241.839 299.994 241.729C299.994 241.618 299.904 241.529 299.793 241.529C299.682 241.529 299.592 241.618 299.592 241.729C299.592 241.839 299.682 241.929 299.793 241.929Z" fill="black"/>
<path opacity="0.8" d="M297.268 242.129C297.379 242.129 297.468 242.04 297.468 241.929C297.468 241.819 297.379 241.729 297.268 241.729C297.157 241.729 297.067 241.819 297.067 241.929C297.067 242.04 297.157 242.129 297.268 242.129Z" fill="black"/>
<path opacity="0.8" d="M294.971 242.129C295.082 242.129 295.171 242.04 295.171 241.929C295.171 241.819 295.082 241.729 294.971 241.729C294.86 241.729 294.77 241.819 294.77 241.929C294.77 242.04 294.86 242.129 294.971 242.129Z" fill="black"/>
</g>
<g opacity="0.8">
<path opacity="0.8" d="M305.548 241.544C305.658 241.544 305.748 241.455 305.748 241.344C305.748 241.234 305.658 241.144 305.548 241.144C305.437 241.144 305.347 241.234 305.347 241.344C305.347 241.455 305.437 241.544 305.548 241.544Z" fill="black"/>
<path opacity="0.8" d="M304.53 241.829C304.64 241.829 304.73 241.739 304.73 241.628C304.73 241.518 304.64 241.428 304.53 241.428C304.419 241.428 304.329 241.518 304.329 241.628C304.329 241.739 304.419 241.829 304.53 241.829Z" fill="black"/>
<path opacity="0.8" d="M303.272 242.229C303.382 242.229 303.472 242.139 303.472 242.029C303.472 241.918 303.382 241.829 303.272 241.829C303.161 241.829 303.071 241.918 303.071 242.029C303.071 242.139 303.161 242.229 303.272 242.229Z" fill="black"/>
<path opacity="0.8" d="M301.016 242.714C301.127 242.714 301.217 242.624 301.217 242.514C301.217 242.403 301.127 242.314 301.016 242.314C300.905 242.314 300.816 242.403 300.816 242.514C300.816 242.624 300.905 242.714 301.016 242.714Z" fill="black"/>
<path opacity="0.8" d="M298.638 243.002C298.749 243.002 298.839 242.912 298.839 242.801C298.839 242.691 298.749 242.601 298.638 242.601C298.528 242.601 298.438 242.691 298.438 242.801C298.438 242.912 298.528 243.002 298.638 243.002Z" fill="black"/>
<path opacity="0.8" d="M296.176 243.115C296.286 243.115 296.376 243.025 296.376 242.914C296.376 242.804 296.286 242.714 296.176 242.714C296.065 242.714 295.975 242.804 295.975 242.914C295.975 243.025 296.065 243.115 296.176 243.115Z" fill="black"/>
<path opacity="0.8" d="M292.641 242.629C292.752 242.629 292.841 242.54 292.841 242.429C292.841 242.319 292.752 242.229 292.641 242.229C292.53 242.229 292.44 242.319 292.44 242.429C292.44 242.54 292.53 242.629 292.641 242.629Z" fill="black"/>
<path opacity="0.8" d="M293.812 242.914C293.923 242.914 294.013 242.825 294.013 242.714C294.013 242.604 293.923 242.514 293.812 242.514C293.701 242.514 293.611 242.604 293.611 242.714C293.611 242.825 293.701 242.914 293.812 242.914Z" fill="black"/>
<path opacity="0.8" d="M290.453 242.229C290.564 242.229 290.653 242.139 290.653 242.029C290.653 241.918 290.564 241.829 290.453 241.829C290.342 241.829 290.252 241.918 290.252 242.029C290.252 242.139 290.342 242.229 290.453 242.229Z" fill="black"/>
<path opacity="0.8" d="M291.507 242.429C291.617 242.429 291.707 242.34 291.707 242.229C291.707 242.118 291.617 242.029 291.507 242.029C291.396 242.029 291.306 242.118 291.306 242.229C291.306 242.34 291.396 242.429 291.507 242.429Z" fill="black"/>
<path opacity="0.8" d="M289.298 241.829C289.409 241.829 289.499 241.739 289.499 241.628C289.499 241.518 289.409 241.428 289.298 241.428C289.187 241.428 289.098 241.518 289.098 241.628C289.098 241.739 289.187 241.829 289.298 241.829Z" fill="black"/>
<path opacity="0.8" d="M302.12 242.514C302.231 242.514 302.321 242.424 302.321 242.314C302.321 242.203 302.231 242.113 302.12 242.113C302.009 242.113 301.919 242.203 301.919 242.314C301.919 242.424 302.009 242.514 302.12 242.514Z" fill="black"/>
<path opacity="0.8" d="M299.793 242.914C299.904 242.914 299.994 242.825 299.994 242.714C299.994 242.604 299.904 242.514 299.793 242.514C299.682 242.514 299.592 242.604 299.592 242.714C299.592 242.825 299.682 242.914 299.793 242.914Z" fill="black"/>
<path opacity="0.8" d="M297.268 243.115C297.379 243.115 297.468 243.025 297.468 242.914C297.468 242.804 297.379 242.714 297.268 242.714C297.157 242.714 297.067 242.804 297.067 242.914C297.067 243.025 297.157 243.115 297.268 243.115Z" fill="black"/>
<path opacity="0.8" d="M294.971 243.115C295.082 243.115 295.171 243.025 295.171 242.914C295.171 242.804 295.082 242.714 294.971 242.714C294.86 242.714 294.77 242.804 294.77 242.914C294.77 243.025 294.86 243.115 294.971 243.115Z" fill="black"/>
</g>
<g opacity="0.8">
<path opacity="0.8" d="M305.548 242.53C305.658 242.53 305.748 242.44 305.748 242.329C305.748 242.219 305.658 242.129 305.548 242.129C305.437 242.129 305.347 242.219 305.347 242.329C305.347 242.44 305.437 242.53 305.548 242.53Z" fill="black"/>
<path opacity="0.8" d="M304.53 242.814C304.64 242.814 304.73 242.724 304.73 242.614C304.73 242.503 304.64 242.413 304.53 242.413C304.419 242.413 304.329 242.503 304.329 242.614C304.329 242.724 304.419 242.814 304.53 242.814Z" fill="black"/>
<path opacity="0.8" d="M303.272 243.214C303.382 243.214 303.472 243.125 303.472 243.014C303.472 242.904 303.382 242.814 303.272 242.814C303.161 242.814 303.071 242.904 303.071 243.014C303.071 243.125 303.161 243.214 303.272 243.214Z" fill="black"/>
<path opacity="0.8" d="M301.016 243.699C301.127 243.699 301.217 243.61 301.217 243.499C301.217 243.389 301.127 243.299 301.016 243.299C300.905 243.299 300.816 243.389 300.816 243.499C300.816 243.61 300.905 243.699 301.016 243.699Z" fill="black"/>
<path opacity="0.8" d="M298.638 243.987C298.749 243.987 298.839 243.897 298.839 243.787C298.839 243.676 298.749 243.586 298.638 243.586C298.528 243.586 298.438 243.676 298.438 243.787C298.438 243.897 298.528 243.987 298.638 243.987Z" fill="black"/>
<path opacity="0.8" d="M296.176 244.1C296.286 244.1 296.376 244.01 296.376 243.9C296.376 243.789 296.286 243.699 296.176 243.699C296.065 243.699 295.975 243.789 295.975 243.9C295.975 244.01 296.065 244.1 296.176 244.1Z" fill="black"/>
<path opacity="0.8" d="M292.641 243.615C292.752 243.615 292.841 243.525 292.841 243.415C292.841 243.304 292.752 243.214 292.641 243.214C292.53 243.214 292.44 243.304 292.44 243.415C292.44 243.525 292.53 243.615 292.641 243.615Z" fill="black"/>
<path opacity="0.8" d="M293.812 243.9C293.923 243.9 294.013 243.81 294.013 243.7C294.013 243.589 293.923 243.499 293.812 243.499C293.701 243.499 293.611 243.589 293.611 243.7C293.611 243.81 293.701 243.9 293.812 243.9Z" fill="black"/>
<path opacity="0.8" d="M290.453 243.214C290.564 243.214 290.653 243.125 290.653 243.014C290.653 242.904 290.564 242.814 290.453 242.814C290.342 242.814 290.252 242.904 290.252 243.014C290.252 243.125 290.342 243.214 290.453 243.214Z" fill="black"/>
<path opacity="0.8" d="M291.507 243.415C291.617 243.415 291.707 243.325 291.707 243.214C291.707 243.104 291.617 243.014 291.507 243.014C291.396 243.014 291.306 243.104 291.306 243.214C291.306 243.325 291.396 243.415 291.507 243.415Z" fill="black"/>
<path opacity="0.8" d="M289.298 242.814C289.409 242.814 289.499 242.724 289.499 242.614C289.499 242.503 289.409 242.413 289.298 242.413C289.187 242.413 289.098 242.503 289.098 242.614C289.098 242.724 289.187 242.814 289.298 242.814Z" fill="black"/>
<path opacity="0.8" d="M302.12 243.499C302.231 243.499 302.321 243.41 302.321 243.299C302.321 243.188 302.231 243.099 302.12 243.099C302.009 243.099 301.919 243.188 301.919 243.299C301.919 243.41 302.009 243.499 302.12 243.499Z" fill="black"/>
<path opacity="0.8" d="M299.793 243.9C299.904 243.9 299.994 243.81 299.994 243.7C299.994 243.589 299.904 243.499 299.793 243.499C299.682 243.499 299.592 243.589 299.592 243.7C299.592 243.81 299.682 243.9 299.793 243.9Z" fill="black"/>
<path opacity="0.8" d="M297.268 244.1C297.379 244.1 297.468 244.01 297.468 243.9C297.468 243.789 297.379 243.699 297.268 243.699C297.157 243.699 297.067 243.789 297.067 243.9C297.067 244.01 297.157 244.1 297.268 244.1Z" fill="black"/>
<path opacity="0.8" d="M294.971 244.1C295.082 244.1 295.171 244.01 295.171 243.9C295.171 243.789 295.082 243.699 294.971 243.699C294.86 243.699 294.77 243.789 294.77 243.9C294.77 244.01 294.86 244.1 294.971 244.1Z" fill="black"/>
</g>
<g opacity="0.8">
<path opacity="0.8" d="M305.548 243.515C305.658 243.515 305.748 243.425 305.748 243.315C305.748 243.204 305.658 243.115 305.548 243.115C305.437 243.115 305.347 243.204 305.347 243.315C305.347 243.425 305.437 243.515 305.548 243.515Z" fill="black"/>
<path opacity="0.8" d="M304.53 243.799C304.64 243.799 304.73 243.71 304.73 243.599C304.73 243.488 304.64 243.399 304.53 243.399C304.419 243.399 304.329 243.488 304.329 243.599C304.329 243.71 304.419 243.799 304.53 243.799Z" fill="black"/>
<path opacity="0.8" d="M303.272 244.2C303.382 244.2 303.472 244.11 303.472 243.999C303.472 243.889 303.382 243.799 303.272 243.799C303.161 243.799 303.071 243.889 303.071 243.999C303.071 244.11 303.161 244.2 303.272 244.2Z" fill="black"/>
<path opacity="0.8" d="M301.016 244.685C301.127 244.685 301.217 244.595 301.217 244.485C301.217 244.374 301.127 244.284 301.016 244.284C300.905 244.284 300.816 244.374 300.816 244.485C300.816 244.595 300.905 244.685 301.016 244.685Z" fill="black"/>
<path opacity="0.8" d="M298.638 244.972C298.749 244.972 298.839 244.883 298.839 244.772C298.839 244.661 298.749 244.572 298.638 244.572C298.528 244.572 298.438 244.661 298.438 244.772C298.438 244.883 298.528 244.972 298.638 244.972Z" fill="black"/>
<path opacity="0.8" d="M296.176 245.085C296.286 245.085 296.376 244.996 296.376 244.885C296.376 244.774 296.286 244.685 296.176 244.685C296.065 244.685 295.975 244.774 295.975 244.885C295.975 244.996 296.065 245.085 296.176 245.085Z" fill="black"/>
<path opacity="0.8" d="M292.641 244.6C292.752 244.6 292.841 244.511 292.841 244.4C292.841 244.289 292.752 244.2 292.641 244.2C292.53 244.2 292.44 244.289 292.44 244.4C292.44 244.511 292.53 244.6 292.641 244.6Z" fill="black"/>
<path opacity="0.8" d="M293.812 244.885C293.923 244.885 294.013 244.795 294.013 244.685C294.013 244.574 293.923 244.485 293.812 244.485C293.701 244.485 293.611 244.574 293.611 244.685C293.611 244.795 293.701 244.885 293.812 244.885Z" fill="black"/>
<path opacity="0.8" d="M290.453 244.2C290.564 244.2 290.653 244.11 290.653 243.999C290.653 243.889 290.564 243.799 290.453 243.799C290.342 243.799 290.252 243.889 290.252 243.999C290.252 244.11 290.342 244.2 290.453 244.2Z" fill="black"/>
<path opacity="0.8" d="M291.507 244.4C291.617 244.4 291.707 244.31 291.707 244.2C291.707 244.089 291.617 244 291.507 244C291.396 244 291.306 244.089 291.306 244.2C291.306 244.31 291.396 244.4 291.507 244.4Z" fill="black"/>
<path opacity="0.8" d="M289.298 243.799C289.409 243.799 289.499 243.71 289.499 243.599C289.499 243.488 289.409 243.399 289.298 243.399C289.187 243.399 289.098 243.488 289.098 243.599C289.098 243.71 289.187 243.799 289.298 243.799Z" fill="black"/>
<path opacity="0.8" d="M302.12 244.485C302.231 244.485 302.321 244.395 302.321 244.284C302.321 244.174 302.231 244.084 302.12 244.084C302.009 244.084 301.919 244.174 301.919 244.284C301.919 244.395 302.009 244.485 302.12 244.485Z" fill="black"/>
<path opacity="0.8" d="M299.793 244.885C299.904 244.885 299.994 244.795 299.994 244.685C299.994 244.574 299.904 244.485 299.793 244.485C299.682 244.485 299.592 244.574 299.592 244.685C299.592 244.795 299.682 244.885 299.793 244.885Z" fill="black"/>
<path opacity="0.8" d="M297.268 245.085C297.379 245.085 297.468 244.996 297.468 244.885C297.468 244.774 297.379 244.685 297.268 244.685C297.157 244.685 297.067 244.774 297.067 244.885C297.067 244.996 297.157 245.085 297.268 245.085Z" fill="black"/>
<path opacity="0.8" d="M294.971 245.085C295.082 245.085 295.171 244.996 295.171 244.885C295.171 244.774 295.082 244.685 294.971 244.685C294.86 244.685 294.77 244.774 294.77 244.885C294.77 244.996 294.86 245.085 294.971 245.085Z" fill="black"/>
</g>
<g opacity="0.8">
<path opacity="0.8" d="M305.548 244.5C305.658 244.5 305.748 244.411 305.748 244.3C305.748 244.19 305.658 244.1 305.548 244.1C305.437 244.1 305.347 244.19 305.347 244.3C305.347 244.411 305.437 244.5 305.548 244.5Z" fill="black"/>
<path opacity="0.8" d="M304.53 244.785C304.64 244.785 304.73 244.695 304.73 244.584C304.73 244.474 304.64 244.384 304.53 244.384C304.419 244.384 304.329 244.474 304.329 244.584C304.329 244.695 304.419 244.785 304.53 244.785Z" fill="black"/>
<path opacity="0.8" d="M303.272 245.185C303.382 245.185 303.472 245.095 303.472 244.985C303.472 244.874 303.382 244.785 303.272 244.785C303.161 244.785 303.071 244.874 303.071 244.985C303.071 245.095 303.161 245.185 303.272 245.185Z" fill="black"/>
<path opacity="0.8" d="M301.016 245.67C301.127 245.67 301.217 245.58 301.217 245.47C301.217 245.359 301.127 245.27 301.016 245.27C300.905 245.27 300.816 245.359 300.816 245.47C300.816 245.58 300.905 245.67 301.016 245.67Z" fill="black"/>
<path opacity="0.8" d="M298.638 245.958C298.749 245.958 298.839 245.868 298.839 245.757C298.839 245.647 298.749 245.557 298.638 245.557C298.528 245.557 298.438 245.647 298.438 245.757C298.438 245.868 298.528 245.958 298.638 245.958Z" fill="black"/>
<path opacity="0.8" d="M296.176 246.071C296.286 246.071 296.376 245.981 296.376 245.87C296.376 245.76 296.286 245.67 296.176 245.67C296.065 245.67 295.975 245.76 295.975 245.87C295.975 245.981 296.065 246.071 296.176 246.071Z" fill="black"/>
<path opacity="0.8" d="M292.641 245.585C292.752 245.585 292.841 245.496 292.841 245.385C292.841 245.275 292.752 245.185 292.641 245.185C292.53 245.185 292.44 245.275 292.44 245.385C292.44 245.496 292.53 245.585 292.641 245.585Z" fill="black"/>
<path opacity="0.8" d="M293.812 245.87C293.923 245.87 294.013 245.781 294.013 245.67C294.013 245.56 293.923 245.47 293.812 245.47C293.701 245.47 293.611 245.56 293.611 245.67C293.611 245.781 293.701 245.87 293.812 245.87Z" fill="black"/>
<path opacity="0.8" d="M290.453 245.185C290.564 245.185 290.653 245.095 290.653 244.985C290.653 244.874 290.564 244.785 290.453 244.785C290.342 244.785 290.252 244.874 290.252 244.985C290.252 245.095 290.342 245.185 290.453 245.185Z" fill="black"/>
<path opacity="0.8" d="M291.507 245.385C291.617 245.385 291.707 245.296 291.707 245.185C291.707 245.074 291.617 244.985 291.507 244.985C291.396 244.985 291.306 245.074 291.306 245.185C291.306 245.296 291.396 245.385 291.507 245.385Z" fill="black"/>
<path opacity="0.8" d="M289.298 244.785C289.409 244.785 289.499 244.695 289.499 244.584C289.499 244.474 289.409 244.384 289.298 244.384C289.187 244.384 289.098 244.474 289.098 244.584C289.098 244.695 289.187 244.785 289.298 244.785Z" fill="black"/>
<path opacity="0.8" d="M302.12 245.47C302.231 245.47 302.321 245.38 302.321 245.27C302.321 245.159 302.231 245.069 302.12 245.069C302.009 245.069 301.919 245.159 301.919 245.27C301.919 245.38 302.009 245.47 302.12 245.47Z" fill="black"/>
<path opacity="0.8" d="M299.793 245.87C299.904 245.87 299.994 245.781 299.994 245.67C299.994 245.56 299.904 245.47 299.793 245.47C299.682 245.47 299.592 245.56 299.592 245.67C299.592 245.781 299.682 245.87 299.793 245.87Z" fill="black"/>
<path opacity="0.8" d="M297.268 246.071C297.379 246.071 297.468 245.981 297.468 245.87C297.468 245.76 297.379 245.67 297.268 245.67C297.157 245.67 297.067 245.76 297.067 245.87C297.067 245.981 297.157 246.071 297.268 246.071Z" fill="black"/>
<path opacity="0.8" d="M294.971 246.071C295.082 246.071 295.171 245.981 295.171 245.87C295.171 245.76 295.082 245.67 294.971 245.67C294.86 245.67 294.77 245.76 294.77 245.87C294.77 245.981 294.86 246.071 294.971 246.071Z" fill="black"/>
</g>
<g opacity="0.8">
<path opacity="0.8" d="M305.548 245.486C305.658 245.486 305.748 245.396 305.748 245.285C305.748 245.175 305.658 245.085 305.548 245.085C305.437 245.085 305.347 245.175 305.347 245.285C305.347 245.396 305.437 245.486 305.548 245.486Z" fill="black"/>
<path opacity="0.8" d="M304.53 245.77C304.64 245.77 304.73 245.68 304.73 245.57C304.73 245.459 304.64 245.369 304.53 245.369C304.419 245.369 304.329 245.459 304.329 245.57C304.329 245.68 304.419 245.77 304.53 245.77Z" fill="black"/>
<path opacity="0.8" d="M303.272 246.17C303.382 246.17 303.472 246.081 303.472 245.97C303.472 245.86 303.382 245.77 303.272 245.77C303.161 245.77 303.071 245.86 303.071 245.97C303.071 246.081 303.161 246.17 303.272 246.17Z" fill="black"/>
<path opacity="0.8" d="M301.016 246.655C301.127 246.655 301.217 246.566 301.217 246.455C301.217 246.345 301.127 246.255 301.016 246.255C300.905 246.255 300.816 246.345 300.816 246.455C300.816 246.566 300.905 246.655 301.016 246.655Z" fill="black"/>
<path opacity="0.8" d="M298.638 246.943C298.749 246.943 298.839 246.853 298.839 246.743C298.839 246.632 298.749 246.542 298.638 246.542C298.528 246.542 298.438 246.632 298.438 246.743C298.438 246.853 298.528 246.943 298.638 246.943Z" fill="black"/>
<path opacity="0.8" d="M296.176 247.056C296.286 247.056 296.376 246.966 296.376 246.856C296.376 246.745 296.286 246.655 296.176 246.655C296.065 246.655 295.975 246.745 295.975 246.856C295.975 246.966 296.065 247.056 296.176 247.056Z" fill="black"/>
<path opacity="0.8" d="M292.641 246.571C292.752 246.571 292.841 246.481 292.841 246.371C292.841 246.26 292.752 246.17 292.641 246.17C292.53 246.17 292.44 246.26 292.44 246.371C292.44 246.481 292.53 246.571 292.641 246.571Z" fill="black"/>
<path opacity="0.8" d="M293.812 246.856C293.923 246.856 294.013 246.766 294.013 246.655C294.013 246.545 293.923 246.455 293.812 246.455C293.701 246.455 293.611 246.545 293.611 246.655C293.611 246.766 293.701 246.856 293.812 246.856Z" fill="black"/>
<path opacity="0.8" d="M290.453 246.17C290.564 246.17 290.653 246.081 290.653 245.97C290.653 245.86 290.564 245.77 290.453 245.77C290.342 245.77 290.252 245.86 290.252 245.97C290.252 246.081 290.342 246.17 290.453 246.17Z" fill="black"/>
<path opacity="0.8" d="M291.507 246.371C291.617 246.371 291.707 246.281 291.707 246.17C291.707 246.06 291.617 245.97 291.507 245.97C291.396 245.97 291.306 246.06 291.306 246.17C291.306 246.281 291.396 246.371 291.507 246.371Z" fill="black"/>
<path opacity="0.8" d="M289.298 245.77C289.409 245.77 289.499 245.68 289.499 245.57C289.499 245.459 289.409 245.369 289.298 245.369C289.187 245.369 289.098 245.459 289.098 245.57C289.098 245.68 289.187 245.77 289.298 245.77Z" fill="black"/>
<path opacity="0.8" d="M302.12 246.455C302.231 246.455 302.321 246.366 302.321 246.255C302.321 246.144 302.231 246.055 302.12 246.055C302.009 246.055 301.919 246.144 301.919 246.255C301.919 246.366 302.009 246.455 302.12 246.455Z" fill="black"/>
<path opacity="0.8" d="M299.793 246.856C299.904 246.856 299.994 246.766 299.994 246.655C299.994 246.545 299.904 246.455 299.793 246.455C299.682 246.455 299.592 246.545 299.592 246.655C299.592 246.766 299.682 246.856 299.793 246.856Z" fill="black"/>
<path opacity="0.8" d="M297.268 247.056C297.379 247.056 297.468 246.966 297.468 246.856C297.468 246.745 297.379 246.655 297.268 246.655C297.157 246.655 297.067 246.745 297.067 246.856C297.067 246.966 297.157 247.056 297.268 247.056Z" fill="black"/>
<path opacity="0.8" d="M294.971 247.056C295.082 247.056 295.171 246.966 295.171 246.856C295.171 246.745 295.082 246.655 294.971 246.655C294.86 246.655 294.77 246.745 294.77 246.856C294.77 246.966 294.86 247.056 294.971 247.056Z" fill="black"/>
</g>
<g opacity="0.8">
<path opacity="0.8" d="M305.548 246.471C305.658 246.471 305.748 246.381 305.748 246.271C305.748 246.16 305.658 246.071 305.548 246.071C305.437 246.071 305.347 246.16 305.347 246.271C305.347 246.381 305.437 246.471 305.548 246.471Z" fill="black"/>
<path opacity="0.8" d="M304.53 246.755C304.64 246.755 304.73 246.666 304.73 246.555C304.73 246.444 304.64 246.355 304.53 246.355C304.419 246.355 304.329 246.444 304.329 246.555C304.329 246.666 304.419 246.755 304.53 246.755Z" fill="black"/>
<path opacity="0.8" d="M303.272 247.156C303.382 247.156 303.472 247.066 303.472 246.955C303.472 246.845 303.382 246.755 303.272 246.755C303.161 246.755 303.071 246.845 303.071 246.955C303.071 247.066 303.161 247.156 303.272 247.156Z" fill="black"/>
<path opacity="0.8" d="M301.016 247.641C301.127 247.641 301.217 247.551 301.217 247.441C301.217 247.33 301.127 247.24 301.016 247.24C300.905 247.24 300.816 247.33 300.816 247.441C300.816 247.551 300.905 247.641 301.016 247.641Z" fill="black"/>
<path opacity="0.8" d="M298.638 247.928C298.749 247.928 298.839 247.839 298.839 247.728C298.839 247.617 298.749 247.528 298.638 247.528C298.528 247.528 298.438 247.617 298.438 247.728C298.438 247.839 298.528 247.928 298.638 247.928Z" fill="black"/>
<path opacity="0.8" d="M296.176 248.041C296.286 248.041 296.376 247.952 296.376 247.841C296.376 247.73 296.286 247.641 296.176 247.641C296.065 247.641 295.975 247.73 295.975 247.841C295.975 247.952 296.065 248.041 296.176 248.041Z" fill="black"/>
<path opacity="0.8" d="M292.641 247.556C292.752 247.556 292.841 247.466 292.841 247.356C292.841 247.245 292.752 247.156 292.641 247.156C292.53 247.156 292.44 247.245 292.44 247.356C292.44 247.466 292.53 247.556 292.641 247.556Z" fill="black"/>
<path opacity="0.8" d="M293.812 247.841C293.923 247.841 294.013 247.751 294.013 247.641C294.013 247.53 293.923 247.44 293.812 247.44C293.701 247.44 293.611 247.53 293.611 247.641C293.611 247.751 293.701 247.841 293.812 247.841Z" fill="black"/>
<path opacity="0.8" d="M290.453 247.156C290.564 247.156 290.653 247.066 290.653 246.955C290.653 246.845 290.564 246.755 290.453 246.755C290.342 246.755 290.252 246.845 290.252 246.955C290.252 247.066 290.342 247.156 290.453 247.156Z" fill="black"/>
<path opacity="0.8" d="M291.507 247.356C291.617 247.356 291.707 247.266 291.707 247.156C291.707 247.045 291.617 246.955 291.507 246.955C291.396 246.955 291.306 247.045 291.306 247.156C291.306 247.266 291.396 247.356 291.507 247.356Z" fill="black"/>
<path opacity="0.8" d="M289.298 246.755C289.409 246.755 289.499 246.666 289.499 246.555C289.499 246.444 289.409 246.355 289.298 246.355C289.187 246.355 289.098 246.444 289.098 246.555C289.098 246.666 289.187 246.755 289.298 246.755Z" fill="black"/>
<path opacity="0.8" d="M302.12 247.44C302.231 247.44 302.321 247.351 302.321 247.24C302.321 247.13 302.231 247.04 302.12 247.04C302.009 247.04 301.919 247.13 301.919 247.24C301.919 247.351 302.009 247.44 302.12 247.44Z" fill="black"/>
<path opacity="0.8" d="M299.793 247.841C299.904 247.841 299.994 247.751 299.994 247.641C299.994 247.53 299.904 247.44 299.793 247.44C299.682 247.44 299.592 247.53 299.592 247.641C299.592 247.751 299.682 247.841 299.793 247.841Z" fill="black"/>
<path opacity="0.8" d="M297.268 248.041C297.379 248.041 297.468 247.952 297.468 247.841C297.468 247.73 297.379 247.641 297.268 247.641C297.157 247.641 297.067 247.73 297.067 247.841C297.067 247.952 297.157 248.041 297.268 248.041Z" fill="black"/>
<path opacity="0.8" d="M294.971 248.041C295.082 248.041 295.171 247.952 295.171 247.841C295.171 247.73 295.082 247.641 294.971 247.641C294.86 247.641 294.77 247.73 294.77 247.841C294.77 247.952 294.86 248.041 294.971 248.041Z" fill="black"/>
</g>
<g opacity="0.8">
<path opacity="0.8" d="M305.548 247.456C305.658 247.456 305.748 247.367 305.748 247.256C305.748 247.146 305.658 247.056 305.548 247.056C305.437 247.056 305.347 247.146 305.347 247.256C305.347 247.367 305.437 247.456 305.548 247.456Z" fill="black"/>
<path opacity="0.8" d="M304.53 247.741C304.64 247.741 304.73 247.651 304.73 247.54C304.73 247.43 304.64 247.34 304.53 247.34C304.419 247.34 304.329 247.43 304.329 247.54C304.329 247.651 304.419 247.741 304.53 247.741Z" fill="black"/>
<path opacity="0.8" d="M303.272 248.141C303.382 248.141 303.472 248.051 303.472 247.941C303.472 247.83 303.382 247.74 303.272 247.74C303.161 247.74 303.071 247.83 303.071 247.941C303.071 248.051 303.161 248.141 303.272 248.141Z" fill="black"/>
<path opacity="0.8" d="M301.016 248.626C301.127 248.626 301.217 248.536 301.217 248.426C301.217 248.315 301.127 248.226 301.016 248.226C300.905 248.226 300.816 248.315 300.816 248.426C300.816 248.536 300.905 248.626 301.016 248.626Z" fill="black"/>
<path opacity="0.8" d="M298.638 248.914C298.749 248.914 298.839 248.824 298.839 248.713C298.839 248.603 298.749 248.513 298.638 248.513C298.528 248.513 298.438 248.603 298.438 248.713C298.438 248.824 298.528 248.914 298.638 248.914Z" fill="black"/>
<path opacity="0.8" d="M296.176 249.026C296.286 249.026 296.376 248.937 296.376 248.826C296.376 248.716 296.286 248.626 296.176 248.626C296.065 248.626 295.975 248.716 295.975 248.826C295.975 248.937 296.065 249.026 296.176 249.026Z" fill="black"/>
<path opacity="0.8" d="M292.641 248.541C292.752 248.541 292.841 248.452 292.841 248.341C292.841 248.231 292.752 248.141 292.641 248.141C292.53 248.141 292.44 248.231 292.44 248.341C292.44 248.452 292.53 248.541 292.641 248.541Z" fill="black"/>
<path opacity="0.8" d="M293.812 248.826C293.923 248.826 294.013 248.737 294.013 248.626C294.013 248.515 293.923 248.426 293.812 248.426C293.701 248.426 293.611 248.515 293.611 248.626C293.611 248.737 293.701 248.826 293.812 248.826Z" fill="black"/>
<path opacity="0.8" d="M290.453 248.141C290.564 248.141 290.653 248.051 290.653 247.941C290.653 247.83 290.564 247.74 290.453 247.74C290.342 247.74 290.252 247.83 290.252 247.941C290.252 248.051 290.342 248.141 290.453 248.141Z" fill="black"/>
<path opacity="0.8" d="M291.507 248.341C291.617 248.341 291.707 248.251 291.707 248.141C291.707 248.03 291.617 247.941 291.507 247.941C291.396 247.941 291.306 248.03 291.306 248.141C291.306 248.251 291.396 248.341 291.507 248.341Z" fill="black"/>
<path opacity="0.8" d="M289.298 247.741C289.409 247.741 289.499 247.651 289.499 247.54C289.499 247.43 289.409 247.34 289.298 247.34C289.187 247.34 289.098 247.43 289.098 247.54C289.098 247.651 289.187 247.741 289.298 247.741Z" fill="black"/>
<path opacity="0.8" d="M302.12 248.426C302.231 248.426 302.321 248.336 302.321 248.226C302.321 248.115 302.231 248.025 302.12 248.025C302.009 248.025 301.919 248.115 301.919 248.226C301.919 248.336 302.009 248.426 302.12 248.426Z" fill="black"/>
<path opacity="0.8" d="M299.793 248.826C299.904 248.826 299.994 248.737 299.994 248.626C299.994 248.515 299.904 248.426 299.793 248.426C299.682 248.426 299.592 248.515 299.592 248.626C299.592 248.737 299.682 248.826 299.793 248.826Z" fill="black"/>
<path opacity="0.8" d="M297.268 249.026C297.379 249.026 297.468 248.937 297.468 248.826C297.468 248.716 297.379 248.626 297.268 248.626C297.157 248.626 297.067 248.716 297.067 248.826C297.067 248.937 297.157 249.026 297.268 249.026Z" fill="black"/>
<path opacity="0.8" d="M294.971 249.026C295.082 249.026 295.171 248.937 295.171 248.826C295.171 248.716 295.082 248.626 294.971 248.626C294.86 248.626 294.77 248.716 294.77 248.826C294.77 248.937 294.86 249.026 294.971 249.026Z" fill="black"/>
</g>
<g opacity="0.8">
<path opacity="0.8" d="M305.548 248.442C305.658 248.442 305.748 248.352 305.748 248.241C305.748 248.131 305.658 248.041 305.548 248.041C305.437 248.041 305.347 248.131 305.347 248.241C305.347 248.352 305.437 248.442 305.548 248.442Z" fill="black"/>
<path opacity="0.8" d="M304.53 248.726C304.64 248.726 304.73 248.636 304.73 248.526C304.73 248.415 304.64 248.325 304.53 248.325C304.419 248.325 304.329 248.415 304.329 248.526C304.329 248.636 304.419 248.726 304.53 248.726Z" fill="black"/>
<path opacity="0.8" d="M303.272 249.126C303.382 249.126 303.472 249.037 303.472 248.926C303.472 248.815 303.382 248.726 303.272 248.726C303.161 248.726 303.071 248.815 303.071 248.926C303.071 249.037 303.161 249.126 303.272 249.126Z" fill="black"/>
<path opacity="0.8" d="M301.016 249.611C301.127 249.611 301.217 249.522 301.217 249.411C301.217 249.301 301.127 249.211 301.016 249.211C300.905 249.211 300.816 249.301 300.816 249.411C300.816 249.522 300.905 249.611 301.016 249.611Z" fill="black"/>
<path opacity="0.8" d="M298.638 249.899C298.749 249.899 298.839 249.809 298.839 249.699C298.839 249.588 298.749 249.498 298.638 249.498C298.528 249.498 298.438 249.588 298.438 249.699C298.438 249.809 298.528 249.899 298.638 249.899Z" fill="black"/>
<path opacity="0.8" d="M296.176 250.012C296.286 250.012 296.376 249.922 296.376 249.812C296.376 249.701 296.286 249.611 296.176 249.611C296.065 249.611 295.975 249.701 295.975 249.812C295.975 249.922 296.065 250.012 296.176 250.012Z" fill="black"/>
<path opacity="0.8" d="M292.641 249.527C292.752 249.527 292.841 249.437 292.841 249.326C292.841 249.216 292.752 249.126 292.641 249.126C292.53 249.126 292.44 249.216 292.44 249.326C292.44 249.437 292.53 249.527 292.641 249.527Z" fill="black"/>
<path opacity="0.8" d="M293.812 249.812C293.923 249.812 294.013 249.722 294.013 249.611C294.013 249.501 293.923 249.411 293.812 249.411C293.701 249.411 293.611 249.501 293.611 249.611C293.611 249.722 293.701 249.812 293.812 249.812Z" fill="black"/>
<path opacity="0.8" d="M290.453 249.126C290.564 249.126 290.653 249.037 290.653 248.926C290.653 248.815 290.564 248.726 290.453 248.726C290.342 248.726 290.252 248.815 290.252 248.926C290.252 249.037 290.342 249.126 290.453 249.126Z" fill="black"/>
<path opacity="0.8" d="M291.507 249.326C291.617 249.326 291.707 249.237 291.707 249.126C291.707 249.016 291.617 248.926 291.507 248.926C291.396 248.926 291.306 249.016 291.306 249.126C291.306 249.237 291.396 249.326 291.507 249.326Z" fill="black"/>
<path opacity="0.8" d="M289.298 248.726C289.409 248.726 289.499 248.636 289.499 248.526C289.499 248.415 289.409 248.325 289.298 248.325C289.187 248.325 289.098 248.415 289.098 248.526C289.098 248.636 289.187 248.726 289.298 248.726Z" fill="black"/>
<path opacity="0.8" d="M302.12 249.411C302.231 249.411 302.321 249.321 302.321 249.211C302.321 249.1 302.231 249.011 302.12 249.011C302.009 249.011 301.919 249.1 301.919 249.211C301.919 249.321 302.009 249.411 302.12 249.411Z" fill="black"/>
<path opacity="0.8" d="M299.793 249.812C299.904 249.812 299.994 249.722 299.994 249.611C299.994 249.501 299.904 249.411 299.793 249.411C299.682 249.411 299.592 249.501 299.592 249.611C299.592 249.722 299.682 249.812 299.793 249.812Z" fill="black"/>
<path opacity="0.8" d="M297.268 250.012C297.379 250.012 297.468 249.922 297.468 249.812C297.468 249.701 297.379 249.611 297.268 249.611C297.157 249.611 297.067 249.701 297.067 249.812C297.067 249.922 297.157 250.012 297.268 250.012Z" fill="black"/>
<path opacity="0.8" d="M294.971 250.012C295.082 250.012 295.171 249.922 295.171 249.812C295.171 249.701 295.082 249.611 294.971 249.611C294.86 249.611 294.77 249.701 294.77 249.812C294.77 249.922 294.86 250.012 294.971 250.012Z" fill="black"/>
</g>
<g opacity="0.8">
<path opacity="0.8" d="M305.548 249.427C305.658 249.427 305.748 249.337 305.748 249.227C305.748 249.116 305.658 249.026 305.548 249.026C305.437 249.026 305.347 249.116 305.347 249.227C305.347 249.337 305.437 249.427 305.548 249.427Z" fill="black"/>
<path opacity="0.8" d="M304.53 249.711C304.64 249.711 304.73 249.622 304.73 249.511C304.73 249.4 304.64 249.311 304.53 249.311C304.419 249.311 304.329 249.4 304.329 249.511C304.329 249.622 304.419 249.711 304.53 249.711Z" fill="black"/>
<path opacity="0.8" d="M303.272 250.112C303.382 250.112 303.472 250.022 303.472 249.911C303.472 249.801 303.382 249.711 303.272 249.711C303.161 249.711 303.071 249.801 303.071 249.911C303.071 250.022 303.161 250.112 303.272 250.112Z" fill="black"/>
<path opacity="0.8" d="M301.016 250.597C301.127 250.597 301.217 250.507 301.217 250.396C301.217 250.286 301.127 250.196 301.016 250.196C300.905 250.196 300.816 250.286 300.816 250.396C300.816 250.507 300.905 250.597 301.016 250.597Z" fill="black"/>
<path opacity="0.8" d="M298.638 250.884C298.749 250.884 298.839 250.794 298.839 250.684C298.839 250.573 298.749 250.484 298.638 250.484C298.528 250.484 298.438 250.573 298.438 250.684C298.438 250.794 298.528 250.884 298.638 250.884Z" fill="black"/>
<path opacity="0.8" d="M296.176 250.997C296.286 250.997 296.376 250.908 296.376 250.797C296.376 250.686 296.286 250.597 296.176 250.597C296.065 250.597 295.975 250.686 295.975 250.797C295.975 250.908 296.065 250.997 296.176 250.997Z" fill="black"/>
<path opacity="0.8" d="M292.641 250.512C292.752 250.512 292.841 250.422 292.841 250.312C292.841 250.201 292.752 250.112 292.641 250.112C292.53 250.112 292.44 250.201 292.44 250.312C292.44 250.422 292.53 250.512 292.641 250.512Z" fill="black"/>
<path opacity="0.8" d="M293.812 250.797C293.923 250.797 294.013 250.707 294.013 250.597C294.013 250.486 293.923 250.396 293.812 250.396C293.701 250.396 293.611 250.486 293.611 250.597C293.611 250.707 293.701 250.797 293.812 250.797Z" fill="black"/>
<path opacity="0.8" d="M290.453 250.112C290.564 250.112 290.653 250.022 290.653 249.911C290.653 249.801 290.564 249.711 290.453 249.711C290.342 249.711 290.252 249.801 290.252 249.911C290.252 250.022 290.342 250.112 290.453 250.112Z" fill="black"/>
<path opacity="0.8" d="M291.507 250.312C291.617 250.312 291.707 250.222 291.707 250.112C291.707 250.001 291.617 249.911 291.507 249.911C291.396 249.911 291.306 250.001 291.306 250.112C291.306 250.222 291.396 250.312 291.507 250.312Z" fill="black"/>
<path opacity="0.8" d="M289.298 249.711C289.409 249.711 289.499 249.622 289.499 249.511C289.499 249.4 289.409 249.311 289.298 249.311C289.187 249.311 289.098 249.4 289.098 249.511C289.098 249.622 289.187 249.711 289.298 249.711Z" fill="black"/>
<path opacity="0.8" d="M302.12 250.396C302.231 250.396 302.321 250.307 302.321 250.196C302.321 250.086 302.231 249.996 302.12 249.996C302.009 249.996 301.919 250.086 301.919 250.196C301.919 250.307 302.009 250.396 302.12 250.396Z" fill="black"/>
<path opacity="0.8" d="M299.793 250.797C299.904 250.797 299.994 250.707 299.994 250.597C299.994 250.486 299.904 250.396 299.793 250.396C299.682 250.396 299.592 250.486 299.592 250.597C299.592 250.707 299.682 250.797 299.793 250.797Z" fill="black"/>
<path opacity="0.8" d="M297.268 250.997C297.379 250.997 297.468 250.908 297.468 250.797C297.468 250.686 297.379 250.597 297.268 250.597C297.157 250.597 297.067 250.686 297.067 250.797C297.067 250.908 297.157 250.997 297.268 250.997Z" fill="black"/>
<path opacity="0.8" d="M294.971 250.997C295.082 250.997 295.171 250.908 295.171 250.797C295.171 250.686 295.082 250.597 294.971 250.597C294.86 250.597 294.77 250.686 294.77 250.797C294.77 250.908 294.86 250.997 294.971 250.997Z" fill="black"/>
</g>
<g opacity="0.8">
<path opacity="0.8" d="M305.548 250.412C305.658 250.412 305.748 250.323 305.748 250.212C305.748 250.101 305.658 250.012 305.548 250.012C305.437 250.012 305.347 250.101 305.347 250.212C305.347 250.323 305.437 250.412 305.548 250.412Z" fill="black"/>
<path opacity="0.8" d="M304.53 250.696C304.64 250.696 304.73 250.607 304.73 250.496C304.73 250.386 304.64 250.296 304.53 250.296C304.419 250.296 304.329 250.386 304.329 250.496C304.329 250.607 304.419 250.696 304.53 250.696Z" fill="black"/>
<path opacity="0.8" d="M303.272 251.097C303.382 251.097 303.472 251.007 303.472 250.897C303.472 250.786 303.382 250.696 303.272 250.696C303.161 250.696 303.071 250.786 303.071 250.897C303.071 251.007 303.161 251.097 303.272 251.097Z" fill="black"/>
<path opacity="0.8" d="M301.016 251.582C301.127 251.582 301.217 251.492 301.217 251.382C301.217 251.271 301.127 251.182 301.016 251.182C300.905 251.182 300.816 251.271 300.816 251.382C300.816 251.492 300.905 251.582 301.016 251.582Z" fill="black"/>
<path opacity="0.8" d="M298.638 251.869C298.749 251.869 298.839 251.78 298.839 251.669C298.839 251.559 298.749 251.469 298.638 251.469C298.528 251.469 298.438 251.559 298.438 251.669C298.438 251.78 298.528 251.869 298.638 251.869Z" fill="black"/>
<path opacity="0.8" d="M296.176 251.982C296.286 251.982 296.376 251.893 296.376 251.782C296.376 251.672 296.286 251.582 296.176 251.582C296.065 251.582 295.975 251.672 295.975 251.782C295.975 251.893 296.065 251.982 296.176 251.982Z" fill="black"/>
<path opacity="0.8" d="M292.641 251.497C292.752 251.497 292.841 251.408 292.841 251.297C292.841 251.187 292.752 251.097 292.641 251.097C292.53 251.097 292.44 251.187 292.44 251.297C292.44 251.408 292.53 251.497 292.641 251.497Z" fill="black"/>
<path opacity="0.8" d="M293.812 251.782C293.923 251.782 294.013 251.693 294.013 251.582C294.013 251.471 293.923 251.382 293.812 251.382C293.701 251.382 293.611 251.471 293.611 251.582C293.611 251.693 293.701 251.782 293.812 251.782Z" fill="black"/>
<path opacity="0.8" d="M290.453 251.097C290.564 251.097 290.653 251.007 290.653 250.897C290.653 250.786 290.564 250.696 290.453 250.696C290.342 250.696 290.252 250.786 290.252 250.897C290.252 251.007 290.342 251.097 290.453 251.097Z" fill="black"/>
<path opacity="0.8" d="M291.507 251.297C291.617 251.297 291.707 251.208 291.707 251.097C291.707 250.986 291.617 250.897 291.507 250.897C291.396 250.897 291.306 250.986 291.306 251.097C291.306 251.208 291.396 251.297 291.507 251.297Z" fill="black"/>
<path opacity="0.8" d="M289.298 250.696C289.409 250.696 289.499 250.607 289.499 250.496C289.499 250.386 289.409 250.296 289.298 250.296C289.187 250.296 289.098 250.386 289.098 250.496C289.098 250.607 289.187 250.696 289.298 250.696Z" fill="black"/>
<path opacity="0.8" d="M302.12 251.382C302.231 251.382 302.321 251.292 302.321 251.182C302.321 251.071 302.231 250.981 302.12 250.981C302.009 250.981 301.919 251.071 301.919 251.182C301.919 251.292 302.009 251.382 302.12 251.382Z" fill="black"/>
<path opacity="0.8" d="M299.793 251.782C299.904 251.782 299.994 251.693 299.994 251.582C299.994 251.471 299.904 251.382 299.793 251.382C299.682 251.382 299.592 251.471 299.592 251.582C299.592 251.693 299.682 251.782 299.793 251.782Z" fill="black"/>
<path opacity="0.8" d="M297.268 251.982C297.379 251.982 297.468 251.893 297.468 251.782C297.468 251.672 297.379 251.582 297.268 251.582C297.157 251.582 297.067 251.672 297.067 251.782C297.067 251.893 297.157 251.982 297.268 251.982Z" fill="black"/>
<path opacity="0.8" d="M294.971 251.982C295.082 251.982 295.171 251.893 295.171 251.782C295.171 251.672 295.082 251.582 294.971 251.582C294.86 251.582 294.77 251.672 294.77 251.782C294.77 251.893 294.86 251.982 294.971 251.982Z" fill="black"/>
</g>
<g opacity="0.8">
<path opacity="0.8" d="M305.548 251.398C305.658 251.398 305.748 251.308 305.748 251.197C305.748 251.087 305.658 250.997 305.548 250.997C305.437 250.997 305.347 251.087 305.347 251.197C305.347 251.308 305.437 251.398 305.548 251.398Z" fill="black"/>
<path opacity="0.8" d="M304.53 251.682C304.64 251.682 304.73 251.592 304.73 251.482C304.73 251.371 304.64 251.281 304.53 251.281C304.419 251.281 304.329 251.371 304.329 251.482C304.329 251.592 304.419 251.682 304.53 251.682Z" fill="black"/>
<path opacity="0.8" d="M303.272 252.082C303.382 252.082 303.472 251.993 303.472 251.882C303.472 251.771 303.382 251.682 303.272 251.682C303.161 251.682 303.071 251.771 303.071 251.882C303.071 251.993 303.161 252.082 303.272 252.082Z" fill="black"/>
<path opacity="0.8" d="M301.016 252.567C301.127 252.567 301.217 252.478 301.217 252.367C301.217 252.257 301.127 252.167 301.016 252.167C300.905 252.167 300.816 252.257 300.816 252.367C300.816 252.478 300.905 252.567 301.016 252.567Z" fill="black"/>
<path opacity="0.8" d="M298.638 252.855C298.749 252.855 298.839 252.765 298.839 252.655C298.839 252.544 298.749 252.454 298.638 252.454C298.528 252.454 298.438 252.544 298.438 252.655C298.438 252.765 298.528 252.855 298.638 252.855Z" fill="black"/>
<path opacity="0.8" d="M296.176 252.968C296.286 252.968 296.376 252.878 296.376 252.768C296.376 252.657 296.286 252.567 296.176 252.567C296.065 252.567 295.975 252.657 295.975 252.768C295.975 252.878 296.065 252.968 296.176 252.968Z" fill="black"/>
<path opacity="0.8" d="M292.641 252.483C292.752 252.483 292.841 252.393 292.841 252.282C292.841 252.172 292.752 252.082 292.641 252.082C292.53 252.082 292.44 252.172 292.44 252.282C292.44 252.393 292.53 252.483 292.641 252.483Z" fill="black"/>
<path opacity="0.8" d="M293.812 252.767C293.923 252.767 294.013 252.678 294.013 252.567C294.013 252.457 293.923 252.367 293.812 252.367C293.701 252.367 293.611 252.457 293.611 252.567C293.611 252.678 293.701 252.767 293.812 252.767Z" fill="black"/>
<path opacity="0.8" d="M290.453 252.082C290.564 252.082 290.653 251.993 290.653 251.882C290.653 251.771 290.564 251.682 290.453 251.682C290.342 251.682 290.252 251.771 290.252 251.882C290.252 251.993 290.342 252.082 290.453 252.082Z" fill="black"/>
<path opacity="0.8" d="M291.507 252.282C291.617 252.282 291.707 252.193 291.707 252.082C291.707 251.972 291.617 251.882 291.507 251.882C291.396 251.882 291.306 251.972 291.306 252.082C291.306 252.193 291.396 252.282 291.507 252.282Z" fill="black"/>
<path opacity="0.8" d="M289.298 251.682C289.409 251.682 289.499 251.592 289.499 251.482C289.499 251.371 289.409 251.281 289.298 251.281C289.187 251.281 289.098 251.371 289.098 251.482C289.098 251.592 289.187 251.682 289.298 251.682Z" fill="black"/>
<path opacity="0.8" d="M302.12 252.367C302.231 252.367 302.321 252.277 302.321 252.167C302.321 252.056 302.231 251.967 302.12 251.967C302.009 251.967 301.919 252.056 301.919 252.167C301.919 252.277 302.009 252.367 302.12 252.367Z" fill="black"/>
<path opacity="0.8" d="M299.793 252.767C299.904 252.767 299.994 252.678 299.994 252.567C299.994 252.457 299.904 252.367 299.793 252.367C299.682 252.367 299.592 252.457 299.592 252.567C299.592 252.678 299.682 252.767 299.793 252.767Z" fill="black"/>
<path opacity="0.8" d="M297.268 252.968C297.379 252.968 297.468 252.878 297.468 252.768C297.468 252.657 297.379 252.567 297.268 252.567C297.157 252.567 297.067 252.657 297.067 252.768C297.067 252.878 297.157 252.968 297.268 252.968Z" fill="black"/>
<path opacity="0.8" d="M294.971 252.968C295.082 252.968 295.171 252.878 295.171 252.768C295.171 252.657 295.082 252.567 294.971 252.567C294.86 252.567 294.77 252.657 294.77 252.768C294.77 252.878 294.86 252.968 294.971 252.968Z" fill="black"/>
</g>
<g opacity="0.8">
<path opacity="0.8" d="M305.548 252.383C305.658 252.383 305.748 252.293 305.748 252.183C305.748 252.072 305.658 251.982 305.548 251.982C305.437 251.982 305.347 252.072 305.347 252.183C305.347 252.293 305.437 252.383 305.548 252.383Z" fill="black"/>
<path opacity="0.8" d="M304.53 252.667C304.64 252.667 304.73 252.577 304.73 252.467C304.73 252.356 304.64 252.267 304.53 252.267C304.419 252.267 304.329 252.356 304.329 252.467C304.329 252.577 304.419 252.667 304.53 252.667Z" fill="black"/>
<path opacity="0.8" d="M303.272 253.067C303.382 253.067 303.472 252.978 303.472 252.867C303.472 252.757 303.382 252.667 303.272 252.667C303.161 252.667 303.071 252.757 303.071 252.867C303.071 252.978 303.161 253.067 303.272 253.067Z" fill="black"/>
<path opacity="0.8" d="M301.016 253.553C301.127 253.553 301.217 253.463 301.217 253.352C301.217 253.242 301.127 253.152 301.016 253.152C300.905 253.152 300.816 253.242 300.816 253.352C300.816 253.463 300.905 253.553 301.016 253.553Z" fill="black"/>
<path opacity="0.8" d="M298.638 253.84C298.749 253.84 298.839 253.75 298.839 253.64C298.839 253.529 298.749 253.44 298.638 253.44C298.528 253.44 298.438 253.529 298.438 253.64C298.438 253.75 298.528 253.84 298.638 253.84Z" fill="black"/>
<path opacity="0.8" d="M296.176 253.953C296.286 253.953 296.376 253.863 296.376 253.753C296.376 253.642 296.286 253.553 296.176 253.553C296.065 253.553 295.975 253.642 295.975 253.753C295.975 253.863 296.065 253.953 296.176 253.953Z" fill="black"/>
<path opacity="0.8" d="M292.641 253.468C292.752 253.468 292.841 253.378 292.841 253.268C292.841 253.157 292.752 253.068 292.641 253.068C292.53 253.068 292.44 253.157 292.44 253.268C292.44 253.378 292.53 253.468 292.641 253.468Z" fill="black"/>
<path opacity="0.8" d="M293.812 253.753C293.923 253.753 294.013 253.663 294.013 253.553C294.013 253.442 293.923 253.352 293.812 253.352C293.701 253.352 293.611 253.442 293.611 253.553C293.611 253.663 293.701 253.753 293.812 253.753Z" fill="black"/>
<path opacity="0.8" d="M290.453 253.067C290.564 253.067 290.653 252.978 290.653 252.867C290.653 252.757 290.564 252.667 290.453 252.667C290.342 252.667 290.252 252.757 290.252 252.867C290.252 252.978 290.342 253.067 290.453 253.067Z" fill="black"/>
<path opacity="0.8" d="M291.507 253.268C291.617 253.268 291.707 253.178 291.707 253.067C291.707 252.957 291.617 252.867 291.507 252.867C291.396 252.867 291.306 252.957 291.306 253.067C291.306 253.178 291.396 253.268 291.507 253.268Z" fill="black"/>
<path opacity="0.8" d="M289.298 252.667C289.409 252.667 289.499 252.577 289.499 252.467C289.499 252.356 289.409 252.267 289.298 252.267C289.187 252.267 289.098 252.356 289.098 252.467C289.098 252.577 289.187 252.667 289.298 252.667Z" fill="black"/>
<path opacity="0.8" d="M302.12 253.352C302.231 253.352 302.321 253.263 302.321 253.152C302.321 253.042 302.231 252.952 302.12 252.952C302.009 252.952 301.919 253.042 301.919 253.152C301.919 253.263 302.009 253.352 302.12 253.352Z" fill="black"/>
<path opacity="0.8" d="M299.793 253.753C299.904 253.753 299.994 253.663 299.994 253.553C299.994 253.442 299.904 253.352 299.793 253.352C299.682 253.352 299.592 253.442 299.592 253.553C299.592 253.663 299.682 253.753 299.793 253.753Z" fill="black"/>
<path opacity="0.8" d="M297.268 253.953C297.379 253.953 297.468 253.863 297.468 253.753C297.468 253.642 297.379 253.553 297.268 253.553C297.157 253.553 297.067 253.642 297.067 253.753C297.067 253.863 297.157 253.953 297.268 253.953Z" fill="black"/>
<path opacity="0.8" d="M294.971 253.953C295.082 253.953 295.171 253.863 295.171 253.753C295.171 253.642 295.082 253.553 294.971 253.553C294.86 253.553 294.77 253.642 294.77 253.753C294.77 253.863 294.86 253.953 294.971 253.953Z" fill="black"/>
</g>
<g opacity="0.8">
<path opacity="0.8" d="M305.548 253.368C305.658 253.368 305.748 253.279 305.748 253.168C305.748 253.057 305.658 252.968 305.548 252.968C305.437 252.968 305.347 253.057 305.347 253.168C305.347 253.279 305.437 253.368 305.548 253.368Z" fill="black"/>
<path opacity="0.8" d="M304.53 253.652C304.64 253.652 304.73 253.563 304.73 253.452C304.73 253.342 304.64 253.252 304.53 253.252C304.419 253.252 304.329 253.342 304.329 253.452C304.329 253.563 304.419 253.652 304.53 253.652Z" fill="black"/>
<path opacity="0.8" d="M303.272 254.053C303.382 254.053 303.472 253.963 303.472 253.853C303.472 253.742 303.382 253.652 303.272 253.652C303.161 253.652 303.071 253.742 303.071 253.853C303.071 253.963 303.161 254.053 303.272 254.053Z" fill="black"/>
<path opacity="0.8" d="M301.016 254.538C301.127 254.538 301.217 254.448 301.217 254.338C301.217 254.227 301.127 254.138 301.016 254.138C300.905 254.138 300.816 254.227 300.816 254.338C300.816 254.448 300.905 254.538 301.016 254.538Z" fill="black"/>
<path opacity="0.8" d="M298.638 254.825C298.749 254.825 298.839 254.736 298.839 254.625C298.839 254.515 298.749 254.425 298.638 254.425C298.528 254.425 298.438 254.515 298.438 254.625C298.438 254.736 298.528 254.825 298.638 254.825Z" fill="black"/>
<path opacity="0.8" d="M296.176 254.938C296.286 254.938 296.376 254.849 296.376 254.738C296.376 254.628 296.286 254.538 296.176 254.538C296.065 254.538 295.975 254.628 295.975 254.738C295.975 254.849 296.065 254.938 296.176 254.938Z" fill="black"/>
<path opacity="0.8" d="M292.641 254.453C292.752 254.453 292.841 254.364 292.841 254.253C292.841 254.143 292.752 254.053 292.641 254.053C292.53 254.053 292.44 254.143 292.44 254.253C292.44 254.364 292.53 254.453 292.641 254.453Z" fill="black"/>
<path opacity="0.8" d="M293.812 254.738C293.923 254.738 294.013 254.649 294.013 254.538C294.013 254.427 293.923 254.338 293.812 254.338C293.701 254.338 293.611 254.427 293.611 254.538C293.611 254.649 293.701 254.738 293.812 254.738Z" fill="black"/>
<path opacity="0.8" d="M290.453 254.053C290.564 254.053 290.653 253.963 290.653 253.853C290.653 253.742 290.564 253.652 290.453 253.652C290.342 253.652 290.252 253.742 290.252 253.853C290.252 253.963 290.342 254.053 290.453 254.053Z" fill="black"/>
<path opacity="0.8" d="M291.507 254.253C291.617 254.253 291.707 254.163 291.707 254.053C291.707 253.942 291.617 253.853 291.507 253.853C291.396 253.853 291.306 253.942 291.306 254.053C291.306 254.163 291.396 254.253 291.507 254.253Z" fill="black"/>
<path opacity="0.8" d="M289.298 253.652C289.409 253.652 289.499 253.563 289.499 253.452C289.499 253.342 289.409 253.252 289.298 253.252C289.187 253.252 289.098 253.342 289.098 253.452C289.098 253.563 289.187 253.652 289.298 253.652Z" fill="black"/>
<path opacity="0.8" d="M302.12 254.338C302.231 254.338 302.321 254.248 302.321 254.137C302.321 254.027 302.231 253.937 302.12 253.937C302.009 253.937 301.919 254.027 301.919 254.137C301.919 254.248 302.009 254.338 302.12 254.338Z" fill="black"/>
<path opacity="0.8" d="M299.793 254.738C299.904 254.738 299.994 254.649 299.994 254.538C299.994 254.427 299.904 254.338 299.793 254.338C299.682 254.338 299.592 254.427 299.592 254.538C299.592 254.649 299.682 254.738 299.793 254.738Z" fill="black"/>
<path opacity="0.8" d="M297.268 254.938C297.379 254.938 297.468 254.849 297.468 254.738C297.468 254.628 297.379 254.538 297.268 254.538C297.157 254.538 297.067 254.628 297.067 254.738C297.067 254.849 297.157 254.938 297.268 254.938Z" fill="black"/>
<path opacity="0.8" d="M294.971 254.938C295.082 254.938 295.171 254.849 295.171 254.738C295.171 254.628 295.082 254.538 294.971 254.538C294.86 254.538 294.77 254.628 294.77 254.738C294.77 254.849 294.86 254.938 294.971 254.938Z" fill="black"/>
</g>
<g opacity="0.8">
<path opacity="0.8" d="M305.548 254.354C305.658 254.354 305.748 254.264 305.748 254.153C305.748 254.043 305.658 253.953 305.548 253.953C305.437 253.953 305.347 254.043 305.347 254.153C305.347 254.264 305.437 254.354 305.548 254.354Z" fill="black"/>
<path opacity="0.8" d="M304.53 254.638C304.64 254.638 304.73 254.548 304.73 254.437C304.73 254.327 304.64 254.237 304.53 254.237C304.419 254.237 304.329 254.327 304.329 254.437C304.329 254.548 304.419 254.638 304.53 254.638Z" fill="black"/>
<path opacity="0.8" d="M303.272 255.038C303.382 255.038 303.472 254.948 303.472 254.838C303.472 254.727 303.382 254.638 303.272 254.638C303.161 254.638 303.071 254.727 303.071 254.838C303.071 254.948 303.161 255.038 303.272 255.038Z" fill="black"/>
<path opacity="0.8" d="M301.016 255.523C301.127 255.523 301.217 255.434 301.217 255.323C301.217 255.212 301.127 255.123 301.016 255.123C300.905 255.123 300.816 255.212 300.816 255.323C300.816 255.434 300.905 255.523 301.016 255.523Z" fill="black"/>
<path opacity="0.8" d="M298.638 255.811C298.749 255.811 298.839 255.721 298.839 255.611C298.839 255.5 298.749 255.41 298.638 255.41C298.528 255.41 298.438 255.5 298.438 255.611C298.438 255.721 298.528 255.811 298.638 255.811Z" fill="black"/>
<path opacity="0.8" d="M296.176 255.924C296.286 255.924 296.376 255.834 296.376 255.723C296.376 255.613 296.286 255.523 296.176 255.523C296.065 255.523 295.975 255.613 295.975 255.723C295.975 255.834 296.065 255.924 296.176 255.924Z" fill="black"/>
<path opacity="0.8" d="M292.641 255.439C292.752 255.439 292.841 255.349 292.841 255.238C292.841 255.128 292.752 255.038 292.641 255.038C292.53 255.038 292.44 255.128 292.44 255.238C292.44 255.349 292.53 255.439 292.641 255.439Z" fill="black"/>
<path opacity="0.8" d="M293.812 255.723C293.923 255.723 294.013 255.634 294.013 255.523C294.013 255.413 293.923 255.323 293.812 255.323C293.701 255.323 293.611 255.413 293.611 255.523C293.611 255.634 293.701 255.723 293.812 255.723Z" fill="black"/>
<path opacity="0.8" d="M290.453 255.038C290.564 255.038 290.653 254.948 290.653 254.838C290.653 254.727 290.564 254.638 290.453 254.638C290.342 254.638 290.252 254.727 290.252 254.838C290.252 254.948 290.342 255.038 290.453 255.038Z" fill="black"/>
<path opacity="0.8" d="M291.507 255.238C291.617 255.238 291.707 255.149 291.707 255.038C291.707 254.928 291.617 254.838 291.507 254.838C291.396 254.838 291.306 254.928 291.306 255.038C291.306 255.149 291.396 255.238 291.507 255.238Z" fill="black"/>
<path opacity="0.8" d="M289.298 254.638C289.409 254.638 289.499 254.548 289.499 254.437C289.499 254.327 289.409 254.237 289.298 254.237C289.187 254.237 289.098 254.327 289.098 254.437C289.098 254.548 289.187 254.638 289.298 254.638Z" fill="black"/>
<path opacity="0.8" d="M302.12 255.323C302.231 255.323 302.321 255.233 302.321 255.123C302.321 255.012 302.231 254.923 302.12 254.923C302.009 254.923 301.919 255.012 301.919 255.123C301.919 255.233 302.009 255.323 302.12 255.323Z" fill="black"/>
<path opacity="0.8" d="M299.793 255.723C299.904 255.723 299.994 255.634 299.994 255.523C299.994 255.413 299.904 255.323 299.793 255.323C299.682 255.323 299.592 255.413 299.592 255.523C299.592 255.634 299.682 255.723 299.793 255.723Z" fill="black"/>
<path opacity="0.8" d="M297.268 255.924C297.379 255.924 297.468 255.834 297.468 255.723C297.468 255.613 297.379 255.523 297.268 255.523C297.157 255.523 297.067 255.613 297.067 255.723C297.067 255.834 297.157 255.924 297.268 255.924Z" fill="black"/>
<path opacity="0.8" d="M294.971 255.924C295.082 255.924 295.171 255.834 295.171 255.723C295.171 255.613 295.082 255.523 294.971 255.523C294.86 255.523 294.77 255.613 294.77 255.723C294.77 255.834 294.86 255.924 294.971 255.924Z" fill="black"/>
</g>
<g opacity="0.8">
<path opacity="0.8" d="M305.548 255.339C305.658 255.339 305.748 255.249 305.748 255.139C305.748 255.028 305.658 254.938 305.548 254.938C305.437 254.938 305.347 255.028 305.347 255.139C305.347 255.249 305.437 255.339 305.548 255.339Z" fill="black"/>
<path opacity="0.8" d="M304.53 255.623C304.64 255.623 304.73 255.533 304.73 255.423C304.73 255.312 304.64 255.223 304.53 255.223C304.419 255.223 304.329 255.312 304.329 255.423C304.329 255.533 304.419 255.623 304.53 255.623Z" fill="black"/>
<path opacity="0.8" d="M303.272 256.023C303.382 256.023 303.472 255.934 303.472 255.823C303.472 255.713 303.382 255.623 303.272 255.623C303.161 255.623 303.071 255.713 303.071 255.823C303.071 255.934 303.161 256.023 303.272 256.023Z" fill="black"/>
<path opacity="0.8" d="M301.016 256.509C301.127 256.509 301.217 256.419 301.217 256.308C301.217 256.198 301.127 256.108 301.016 256.108C300.905 256.108 300.816 256.198 300.816 256.308C300.816 256.419 300.905 256.509 301.016 256.509Z" fill="black"/>
<path opacity="0.8" d="M298.638 256.796C298.749 256.796 298.839 256.706 298.839 256.596C298.839 256.485 298.749 256.396 298.638 256.396C298.528 256.396 298.438 256.485 298.438 256.596C298.438 256.706 298.528 256.796 298.638 256.796Z" fill="black"/>
<path opacity="0.8" d="M296.176 256.909C296.286 256.909 296.376 256.819 296.376 256.709C296.376 256.598 296.286 256.509 296.176 256.509C296.065 256.509 295.975 256.598 295.975 256.709C295.975 256.819 296.065 256.909 296.176 256.909Z" fill="black"/>
<path opacity="0.8" d="M292.641 256.424C292.752 256.424 292.841 256.334 292.841 256.224C292.841 256.113 292.752 256.023 292.641 256.023C292.53 256.023 292.44 256.113 292.44 256.224C292.44 256.334 292.53 256.424 292.641 256.424Z" fill="black"/>
<path opacity="0.8" d="M293.812 256.709C293.923 256.709 294.013 256.619 294.013 256.509C294.013 256.398 293.923 256.308 293.812 256.308C293.701 256.308 293.611 256.398 293.611 256.509C293.611 256.619 293.701 256.709 293.812 256.709Z" fill="black"/>
<path opacity="0.8" d="M290.453 256.023C290.564 256.023 290.653 255.934 290.653 255.823C290.653 255.713 290.564 255.623 290.453 255.623C290.342 255.623 290.252 255.713 290.252 255.823C290.252 255.934 290.342 256.023 290.453 256.023Z" fill="black"/>
<path opacity="0.8" d="M291.507 256.224C291.617 256.224 291.707 256.134 291.707 256.023C291.707 255.913 291.617 255.823 291.507 255.823C291.396 255.823 291.306 255.913 291.306 256.023C291.306 256.134 291.396 256.224 291.507 256.224Z" fill="black"/>
<path opacity="0.8" d="M289.298 255.623C289.409 255.623 289.499 255.533 289.499 255.423C289.499 255.312 289.409 255.223 289.298 255.223C289.187 255.223 289.098 255.312 289.098 255.423C289.098 255.533 289.187 255.623 289.298 255.623Z" fill="black"/>
<path opacity="0.8" d="M302.12 256.308C302.231 256.308 302.321 256.219 302.321 256.108C302.321 255.998 302.231 255.908 302.12 255.908C302.009 255.908 301.919 255.998 301.919 256.108C301.919 256.219 302.009 256.308 302.12 256.308Z" fill="black"/>
<path opacity="0.8" d="M299.793 256.709C299.904 256.709 299.994 256.619 299.994 256.509C299.994 256.398 299.904 256.308 299.793 256.308C299.682 256.308 299.592 256.398 299.592 256.509C299.592 256.619 299.682 256.709 299.793 256.709Z" fill="black"/>
<path opacity="0.8" d="M297.268 256.909C297.379 256.909 297.468 256.819 297.468 256.709C297.468 256.598 297.379 256.509 297.268 256.509C297.157 256.509 297.067 256.598 297.067 256.709C297.067 256.819 297.157 256.909 297.268 256.909Z" fill="black"/>
<path opacity="0.8" d="M294.971 256.909C295.082 256.909 295.171 256.819 295.171 256.709C295.171 256.598 295.082 256.509 294.971 256.509C294.86 256.509 294.77 256.598 294.77 256.709C294.77 256.819 294.86 256.909 294.971 256.909Z" fill="black"/>
</g>
<g opacity="0.8">
<path opacity="0.8" d="M305.548 256.324C305.658 256.324 305.748 256.234 305.748 256.124C305.748 256.013 305.658 255.924 305.548 255.924C305.437 255.924 305.347 256.013 305.347 256.124C305.347 256.234 305.437 256.324 305.548 256.324Z" fill="black"/>
<path opacity="0.8" d="M304.53 256.608C304.64 256.608 304.73 256.519 304.73 256.408C304.73 256.298 304.64 256.208 304.53 256.208C304.419 256.208 304.329 256.298 304.329 256.408C304.329 256.519 304.419 256.608 304.53 256.608Z" fill="black"/>
<path opacity="0.8" d="M303.272 257.009C303.382 257.009 303.472 256.919 303.472 256.809C303.472 256.698 303.382 256.608 303.272 256.608C303.161 256.608 303.071 256.698 303.071 256.809C303.071 256.919 303.161 257.009 303.272 257.009Z" fill="black"/>
<path opacity="0.8" d="M301.016 257.494C301.127 257.494 301.217 257.404 301.217 257.294C301.217 257.183 301.127 257.093 301.016 257.093C300.905 257.093 300.816 257.183 300.816 257.294C300.816 257.404 300.905 257.494 301.016 257.494Z" fill="black"/>
<path opacity="0.8" d="M298.638 257.781C298.749 257.781 298.839 257.692 298.839 257.581C298.839 257.47 298.749 257.381 298.638 257.381C298.528 257.381 298.438 257.47 298.438 257.581C298.438 257.692 298.528 257.781 298.638 257.781Z" fill="black"/>
<path opacity="0.8" d="M296.176 257.894C296.286 257.894 296.376 257.805 296.376 257.694C296.376 257.583 296.286 257.494 296.176 257.494C296.065 257.494 295.975 257.583 295.975 257.694C295.975 257.805 296.065 257.894 296.176 257.894Z" fill="black"/>
<path opacity="0.8" d="M292.641 257.409C292.752 257.409 292.841 257.32 292.841 257.209C292.841 257.098 292.752 257.009 292.641 257.009C292.53 257.009 292.44 257.098 292.44 257.209C292.44 257.32 292.53 257.409 292.641 257.409Z" fill="black"/>
<path opacity="0.8" d="M293.812 257.694C293.923 257.694 294.013 257.604 294.013 257.494C294.013 257.383 293.923 257.294 293.812 257.294C293.701 257.294 293.611 257.383 293.611 257.494C293.611 257.604 293.701 257.694 293.812 257.694Z" fill="black"/>
<path opacity="0.8" d="M290.453 257.009C290.564 257.009 290.653 256.919 290.653 256.809C290.653 256.698 290.564 256.608 290.453 256.608C290.342 256.608 290.252 256.698 290.252 256.809C290.252 256.919 290.342 257.009 290.453 257.009Z" fill="black"/>
<path opacity="0.8" d="M291.507 257.209C291.617 257.209 291.707 257.119 291.707 257.009C291.707 256.898 291.617 256.809 291.507 256.809C291.396 256.809 291.306 256.898 291.306 257.009C291.306 257.119 291.396 257.209 291.507 257.209Z" fill="black"/>
<path opacity="0.8" d="M289.298 256.608C289.409 256.608 289.499 256.519 289.499 256.408C289.499 256.298 289.409 256.208 289.298 256.208C289.187 256.208 289.098 256.298 289.098 256.408C289.098 256.519 289.187 256.608 289.298 256.608Z" fill="black"/>
<path opacity="0.8" d="M302.12 257.294C302.231 257.294 302.321 257.204 302.321 257.093C302.321 256.983 302.231 256.893 302.12 256.893C302.009 256.893 301.919 256.983 301.919 257.093C301.919 257.204 302.009 257.294 302.12 257.294Z" fill="black"/>
<path opacity="0.8" d="M299.793 257.694C299.904 257.694 299.994 257.604 299.994 257.494C299.994 257.383 299.904 257.294 299.793 257.294C299.682 257.294 299.592 257.383 299.592 257.494C299.592 257.604 299.682 257.694 299.793 257.694Z" fill="black"/>
<path opacity="0.8" d="M297.268 257.894C297.379 257.894 297.468 257.805 297.468 257.694C297.468 257.583 297.379 257.494 297.268 257.494C297.157 257.494 297.067 257.583 297.067 257.694C297.067 257.805 297.157 257.894 297.268 257.894Z" fill="black"/>
<path opacity="0.8" d="M294.971 257.894C295.082 257.894 295.171 257.805 295.171 257.694C295.171 257.583 295.082 257.494 294.971 257.494C294.86 257.494 294.77 257.583 294.77 257.694C294.77 257.805 294.86 257.894 294.971 257.894Z" fill="black"/>
</g>
<g opacity="0.8">
<path opacity="0.8" d="M305.548 257.31C305.658 257.31 305.748 257.22 305.748 257.109C305.748 256.999 305.658 256.909 305.548 256.909C305.437 256.909 305.347 256.999 305.347 257.109C305.347 257.22 305.437 257.31 305.548 257.31Z" fill="black"/>
<path opacity="0.8" d="M304.53 257.594C304.64 257.594 304.73 257.504 304.73 257.393C304.73 257.283 304.64 257.193 304.53 257.193C304.419 257.193 304.329 257.283 304.329 257.393C304.329 257.504 304.419 257.594 304.53 257.594Z" fill="black"/>
<path opacity="0.8" d="M303.272 257.994C303.382 257.994 303.472 257.904 303.472 257.794C303.472 257.683 303.382 257.594 303.272 257.594C303.161 257.594 303.071 257.683 303.071 257.794C303.071 257.904 303.161 257.994 303.272 257.994Z" fill="black"/>
<path opacity="0.8" d="M301.016 258.479C301.127 258.479 301.217 258.39 301.217 258.279C301.217 258.168 301.127 258.079 301.016 258.079C300.905 258.079 300.816 258.168 300.816 258.279C300.816 258.39 300.905 258.479 301.016 258.479Z" fill="black"/>
<path opacity="0.8" d="M298.638 258.767C298.749 258.767 298.839 258.677 298.839 258.566C298.839 258.456 298.749 258.366 298.638 258.366C298.528 258.366 298.438 258.456 298.438 258.566C298.438 258.677 298.528 258.767 298.638 258.767Z" fill="black"/>
<path opacity="0.8" d="M296.176 258.88C296.286 258.88 296.376 258.79 296.376 258.679C296.376 258.569 296.286 258.479 296.176 258.479C296.065 258.479 295.975 258.569 295.975 258.679C295.975 258.79 296.065 258.88 296.176 258.88Z" fill="black"/>
<path opacity="0.8" d="M292.641 258.395C292.752 258.395 292.841 258.305 292.841 258.194C292.841 258.084 292.752 257.994 292.641 257.994C292.53 257.994 292.44 258.084 292.44 258.194C292.44 258.305 292.53 258.395 292.641 258.395Z" fill="black"/>
<path opacity="0.8" d="M293.812 258.679C293.923 258.679 294.013 258.59 294.013 258.479C294.013 258.369 293.923 258.279 293.812 258.279C293.701 258.279 293.611 258.369 293.611 258.479C293.611 258.59 293.701 258.679 293.812 258.679Z" fill="black"/>
<path opacity="0.8" d="M290.453 257.994C290.564 257.994 290.653 257.904 290.653 257.794C290.653 257.683 290.564 257.594 290.453 257.594C290.342 257.594 290.252 257.683 290.252 257.794C290.252 257.904 290.342 257.994 290.453 257.994Z" fill="black"/>
<path opacity="0.8" d="M291.507 258.194C291.617 258.194 291.707 258.105 291.707 257.994C291.707 257.884 291.617 257.794 291.507 257.794C291.396 257.794 291.306 257.884 291.306 257.994C291.306 258.105 291.396 258.194 291.507 258.194Z" fill="black"/>
<path opacity="0.8" d="M289.298 257.594C289.409 257.594 289.499 257.504 289.499 257.393C289.499 257.283 289.409 257.193 289.298 257.193C289.187 257.193 289.098 257.283 289.098 257.393C289.098 257.504 289.187 257.594 289.298 257.594Z" fill="black"/>
<path opacity="0.8" d="M302.12 258.279C302.231 258.279 302.321 258.189 302.321 258.079C302.321 257.968 302.231 257.879 302.12 257.879C302.009 257.879 301.919 257.968 301.919 258.079C301.919 258.189 302.009 258.279 302.12 258.279Z" fill="black"/>
<path opacity="0.8" d="M299.793 258.679C299.904 258.679 299.994 258.59 299.994 258.479C299.994 258.369 299.904 258.279 299.793 258.279C299.682 258.279 299.592 258.369 299.592 258.479C299.592 258.59 299.682 258.679 299.793 258.679Z" fill="black"/>
<path opacity="0.8" d="M297.268 258.88C297.379 258.88 297.468 258.79 297.468 258.679C297.468 258.569 297.379 258.479 297.268 258.479C297.157 258.479 297.067 258.569 297.067 258.679C297.067 258.79 297.157 258.88 297.268 258.88Z" fill="black"/>
<path opacity="0.8" d="M294.971 258.88C295.082 258.88 295.171 258.79 295.171 258.679C295.171 258.569 295.082 258.479 294.971 258.479C294.86 258.479 294.77 258.569 294.77 258.679C294.77 258.79 294.86 258.88 294.971 258.88Z" fill="black"/>
</g>
<g opacity="0.8">
<path opacity="0.8" d="M305.548 258.295C305.658 258.295 305.748 258.205 305.748 258.095C305.748 257.984 305.658 257.894 305.548 257.894C305.437 257.894 305.347 257.984 305.347 258.095C305.347 258.205 305.437 258.295 305.548 258.295Z" fill="black"/>
<path opacity="0.8" d="M304.53 258.579C304.64 258.579 304.73 258.489 304.73 258.379C304.73 258.268 304.64 258.179 304.53 258.179C304.419 258.179 304.329 258.268 304.329 258.379C304.329 258.489 304.419 258.579 304.53 258.579Z" fill="black"/>
<path opacity="0.8" d="M303.272 258.979C303.382 258.979 303.472 258.89 303.472 258.779C303.472 258.669 303.382 258.579 303.272 258.579C303.161 258.579 303.071 258.669 303.071 258.779C303.071 258.89 303.161 258.979 303.272 258.979Z" fill="black"/>
<path opacity="0.8" d="M301.016 259.465C301.127 259.465 301.217 259.375 301.217 259.264C301.217 259.154 301.127 259.064 301.016 259.064C300.905 259.064 300.816 259.154 300.816 259.264C300.816 259.375 300.905 259.465 301.016 259.465Z" fill="black"/>
<path opacity="0.8" d="M298.638 259.752C298.749 259.752 298.839 259.662 298.839 259.552C298.839 259.441 298.749 259.352 298.638 259.352C298.528 259.352 298.438 259.441 298.438 259.552C298.438 259.662 298.528 259.752 298.638 259.752Z" fill="black"/>
<path opacity="0.8" d="M296.176 259.865C296.286 259.865 296.376 259.775 296.376 259.665C296.376 259.554 296.286 259.464 296.176 259.464C296.065 259.464 295.975 259.554 295.975 259.665C295.975 259.775 296.065 259.865 296.176 259.865Z" fill="black"/>
<path opacity="0.8" d="M292.641 259.38C292.752 259.38 292.841 259.29 292.841 259.18C292.841 259.069 292.752 258.979 292.641 258.979C292.53 258.979 292.44 259.069 292.44 259.18C292.44 259.29 292.53 259.38 292.641 259.38Z" fill="black"/>
<path opacity="0.8" d="M293.812 259.665C293.923 259.665 294.013 259.575 294.013 259.464C294.013 259.354 293.923 259.264 293.812 259.264C293.701 259.264 293.611 259.354 293.611 259.464C293.611 259.575 293.701 259.665 293.812 259.665Z" fill="black"/>
<path opacity="0.8" d="M290.453 258.979C290.564 258.979 290.653 258.89 290.653 258.779C290.653 258.669 290.564 258.579 290.453 258.579C290.342 258.579 290.252 258.669 290.252 258.779C290.252 258.89 290.342 258.979 290.453 258.979Z" fill="black"/>
<path opacity="0.8" d="M291.507 259.18C291.617 259.18 291.707 259.09 291.707 258.979C291.707 258.869 291.617 258.779 291.507 258.779C291.396 258.779 291.306 258.869 291.306 258.979C291.306 259.09 291.396 259.18 291.507 259.18Z" fill="black"/>
<path opacity="0.8" d="M289.298 258.579C289.409 258.579 289.499 258.49 289.499 258.379C289.499 258.269 289.409 258.179 289.298 258.179C289.187 258.179 289.098 258.269 289.098 258.379C289.098 258.49 289.187 258.579 289.298 258.579Z" fill="black"/>
<path opacity="0.8" d="M302.12 259.264C302.231 259.264 302.321 259.175 302.321 259.064C302.321 258.954 302.231 258.864 302.12 258.864C302.009 258.864 301.919 258.954 301.919 259.064C301.919 259.175 302.009 259.264 302.12 259.264Z" fill="black"/>
<path opacity="0.8" d="M299.793 259.665C299.904 259.665 299.994 259.575 299.994 259.464C299.994 259.354 299.904 259.264 299.793 259.264C299.682 259.264 299.592 259.354 299.592 259.464C299.592 259.575 299.682 259.665 299.793 259.665Z" fill="black"/>
<path opacity="0.8" d="M297.268 259.865C297.379 259.865 297.468 259.775 297.468 259.665C297.468 259.554 297.379 259.464 297.268 259.464C297.157 259.464 297.067 259.554 297.067 259.665C297.067 259.775 297.157 259.865 297.268 259.865Z" fill="black"/>
<path opacity="0.8" d="M294.971 259.865C295.082 259.865 295.171 259.775 295.171 259.665C295.171 259.554 295.082 259.464 294.971 259.464C294.86 259.464 294.77 259.554 294.77 259.665C294.77 259.775 294.86 259.865 294.971 259.865Z" fill="black"/>
</g>
<g opacity="0.8">
<path opacity="0.8" d="M305.548 259.28C305.658 259.28 305.748 259.19 305.748 259.08C305.748 258.969 305.658 258.88 305.548 258.88C305.437 258.88 305.347 258.969 305.347 259.08C305.347 259.19 305.437 259.28 305.548 259.28Z" fill="black"/>
<path opacity="0.8" d="M304.53 259.564C304.64 259.564 304.73 259.475 304.73 259.364C304.73 259.253 304.64 259.164 304.53 259.164C304.419 259.164 304.329 259.253 304.329 259.364C304.329 259.475 304.419 259.564 304.53 259.564Z" fill="black"/>
<path opacity="0.8" d="M303.272 259.965C303.382 259.965 303.472 259.875 303.472 259.764C303.472 259.654 303.382 259.564 303.272 259.564C303.161 259.564 303.071 259.654 303.071 259.764C303.071 259.875 303.161 259.965 303.272 259.965Z" fill="black"/>
<path opacity="0.8" d="M301.016 260.45C301.127 260.45 301.217 260.36 301.217 260.25C301.217 260.139 301.127 260.049 301.016 260.049C300.905 260.049 300.816 260.139 300.816 260.25C300.816 260.36 300.905 260.45 301.016 260.45Z" fill="black"/>
<path opacity="0.8" d="M298.638 260.737C298.749 260.737 298.839 260.648 298.839 260.537C298.839 260.426 298.749 260.337 298.638 260.337C298.528 260.337 298.438 260.426 298.438 260.537C298.438 260.648 298.528 260.737 298.638 260.737Z" fill="black"/>
<path opacity="0.8" d="M296.176 260.85C296.286 260.85 296.376 260.761 296.376 260.65C296.376 260.539 296.286 260.45 296.176 260.45C296.065 260.45 295.975 260.539 295.975 260.65C295.975 260.761 296.065 260.85 296.176 260.85Z" fill="black"/>
<path opacity="0.8" d="M292.641 260.365C292.752 260.365 292.841 260.276 292.841 260.165C292.841 260.054 292.752 259.965 292.641 259.965C292.53 259.965 292.44 260.054 292.44 260.165C292.44 260.276 292.53 260.365 292.641 260.365Z" fill="black"/>
<path opacity="0.8" d="M293.812 260.65C293.923 260.65 294.013 260.56 294.013 260.45C294.013 260.339 293.923 260.25 293.812 260.25C293.701 260.25 293.611 260.339 293.611 260.45C293.611 260.56 293.701 260.65 293.812 260.65Z" fill="black"/>
<path opacity="0.8" d="M290.453 259.965C290.564 259.965 290.653 259.875 290.653 259.764C290.653 259.654 290.564 259.564 290.453 259.564C290.342 259.564 290.252 259.654 290.252 259.764C290.252 259.875 290.342 259.965 290.453 259.965Z" fill="black"/>
<path opacity="0.8" d="M291.507 260.165C291.617 260.165 291.707 260.075 291.707 259.965C291.707 259.854 291.617 259.765 291.507 259.765C291.396 259.765 291.306 259.854 291.306 259.965C291.306 260.075 291.396 260.165 291.507 260.165Z" fill="black"/>
<path opacity="0.8" d="M289.298 259.564C289.409 259.564 289.499 259.475 289.499 259.364C289.499 259.253 289.409 259.164 289.298 259.164C289.187 259.164 289.098 259.253 289.098 259.364C289.098 259.475 289.187 259.564 289.298 259.564Z" fill="black"/>
<path opacity="0.8" d="M302.12 260.25C302.231 260.25 302.321 260.16 302.321 260.049C302.321 259.939 302.231 259.849 302.12 259.849C302.009 259.849 301.919 259.939 301.919 260.049C301.919 260.16 302.009 260.25 302.12 260.25Z" fill="black"/>
<path opacity="0.8" d="M299.793 260.65C299.904 260.65 299.994 260.56 299.994 260.45C299.994 260.339 299.904 260.25 299.793 260.25C299.682 260.25 299.592 260.339 299.592 260.45C299.592 260.56 299.682 260.65 299.793 260.65Z" fill="black"/>
<path opacity="0.8" d="M297.268 260.85C297.379 260.85 297.468 260.761 297.468 260.65C297.468 260.539 297.379 260.45 297.268 260.45C297.157 260.45 297.067 260.539 297.067 260.65C297.067 260.761 297.157 260.85 297.268 260.85Z" fill="black"/>
<path opacity="0.8" d="M294.971 260.85C295.082 260.85 295.171 260.761 295.171 260.65C295.171 260.539 295.082 260.45 294.971 260.45C294.86 260.45 294.77 260.539 294.77 260.65C294.77 260.761 294.86 260.85 294.971 260.85Z" fill="black"/>
</g>
<g opacity="0.8">
<path opacity="0.8" d="M305.548 260.265C305.658 260.265 305.748 260.176 305.748 260.065C305.748 259.955 305.658 259.865 305.548 259.865C305.437 259.865 305.347 259.955 305.347 260.065C305.347 260.176 305.437 260.265 305.548 260.265Z" fill="black"/>
<path opacity="0.8" d="M304.53 260.55C304.64 260.55 304.73 260.46 304.73 260.349C304.73 260.239 304.64 260.149 304.53 260.149C304.419 260.149 304.329 260.239 304.329 260.349C304.329 260.46 304.419 260.55 304.53 260.55Z" fill="black"/>
<path opacity="0.8" d="M303.272 260.95C303.382 260.95 303.472 260.86 303.472 260.75C303.472 260.639 303.382 260.55 303.272 260.55C303.161 260.55 303.071 260.639 303.071 260.75C303.071 260.86 303.161 260.95 303.272 260.95Z" fill="black"/>
<path opacity="0.8" d="M301.016 261.435C301.127 261.435 301.217 261.346 301.217 261.235C301.217 261.124 301.127 261.035 301.016 261.035C300.905 261.035 300.816 261.124 300.816 261.235C300.816 261.346 300.905 261.435 301.016 261.435Z" fill="black"/>
<path opacity="0.8" d="M298.638 261.723C298.749 261.723 298.839 261.633 298.839 261.522C298.839 261.412 298.749 261.322 298.638 261.322C298.528 261.322 298.438 261.412 298.438 261.522C298.438 261.633 298.528 261.723 298.638 261.723Z" fill="black"/>
<path opacity="0.8" d="M296.176 261.836C296.286 261.836 296.376 261.746 296.376 261.635C296.376 261.525 296.286 261.435 296.176 261.435C296.065 261.435 295.975 261.525 295.975 261.635C295.975 261.746 296.065 261.836 296.176 261.836Z" fill="black"/>
<path opacity="0.8" d="M292.641 261.35C292.752 261.35 292.841 261.261 292.841 261.15C292.841 261.04 292.752 260.95 292.641 260.95C292.53 260.95 292.44 261.04 292.44 261.15C292.44 261.261 292.53 261.35 292.641 261.35Z" fill="black"/>
<path opacity="0.8" d="M293.812 261.635C293.923 261.635 294.013 261.546 294.013 261.435C294.013 261.325 293.923 261.235 293.812 261.235C293.701 261.235 293.611 261.325 293.611 261.435C293.611 261.546 293.701 261.635 293.812 261.635Z" fill="black"/>
<path opacity="0.8" d="M290.453 260.95C290.564 260.95 290.653 260.86 290.653 260.75C290.653 260.639 290.564 260.55 290.453 260.55C290.342 260.55 290.252 260.639 290.252 260.75C290.252 260.86 290.342 260.95 290.453 260.95Z" fill="black"/>
<path opacity="0.8" d="M291.507 261.15C291.617 261.15 291.707 261.061 291.707 260.95C291.707 260.839 291.617 260.75 291.507 260.75C291.396 260.75 291.306 260.839 291.306 260.95C291.306 261.061 291.396 261.15 291.507 261.15Z" fill="black"/>
<path opacity="0.8" d="M289.298 260.55C289.409 260.55 289.499 260.46 289.499 260.349C289.499 260.239 289.409 260.149 289.298 260.149C289.187 260.149 289.098 260.239 289.098 260.349C289.098 260.46 289.187 260.55 289.298 260.55Z" fill="black"/>
<path opacity="0.8" d="M302.12 261.235C302.231 261.235 302.321 261.145 302.321 261.035C302.321 260.924 302.231 260.834 302.12 260.834C302.009 260.834 301.919 260.924 301.919 261.035C301.919 261.145 302.009 261.235 302.12 261.235Z" fill="black"/>
<path opacity="0.8" d="M299.793 261.635C299.904 261.635 299.994 261.546 299.994 261.435C299.994 261.325 299.904 261.235 299.793 261.235C299.682 261.235 299.592 261.325 299.592 261.435C299.592 261.546 299.682 261.635 299.793 261.635Z" fill="black"/>
<path opacity="0.8" d="M297.268 261.836C297.379 261.836 297.468 261.746 297.468 261.635C297.468 261.525 297.379 261.435 297.268 261.435C297.157 261.435 297.067 261.525 297.067 261.635C297.067 261.746 297.157 261.836 297.268 261.836Z" fill="black"/>
<path opacity="0.8" d="M294.971 261.836C295.082 261.836 295.171 261.746 295.171 261.635C295.171 261.525 295.082 261.435 294.971 261.435C294.86 261.435 294.77 261.525 294.77 261.635C294.77 261.746 294.86 261.836 294.971 261.836Z" fill="black"/>
</g>
<g opacity="0.8">
<path opacity="0.8" d="M305.548 261.251C305.658 261.251 305.748 261.161 305.748 261.05C305.748 260.94 305.658 260.85 305.548 260.85C305.437 260.85 305.347 260.94 305.347 261.05C305.347 261.161 305.437 261.251 305.548 261.251Z" fill="black"/>
<path opacity="0.8" d="M304.53 261.535C304.64 261.535 304.73 261.445 304.73 261.335C304.73 261.224 304.64 261.134 304.53 261.134C304.419 261.134 304.329 261.224 304.329 261.335C304.329 261.445 304.419 261.535 304.53 261.535Z" fill="black"/>
<path opacity="0.8" d="M303.272 261.935C303.382 261.935 303.472 261.846 303.472 261.735C303.472 261.625 303.382 261.535 303.272 261.535C303.161 261.535 303.071 261.625 303.071 261.735C303.071 261.846 303.161 261.935 303.272 261.935Z" fill="black"/>
<path opacity="0.8" d="M301.016 262.42C301.127 262.42 301.217 262.331 301.217 262.22C301.217 262.11 301.127 262.02 301.016 262.02C300.905 262.02 300.816 262.11 300.816 262.22C300.816 262.331 300.905 262.42 301.016 262.42Z" fill="black"/>
<path opacity="0.8" d="M298.638 262.708C298.749 262.708 298.839 262.618 298.839 262.508C298.839 262.397 298.749 262.307 298.638 262.307C298.528 262.307 298.438 262.397 298.438 262.508C298.438 262.618 298.528 262.708 298.638 262.708Z" fill="black"/>
<path opacity="0.8" d="M296.176 262.821C296.286 262.821 296.376 262.731 296.376 262.621C296.376 262.51 296.286 262.42 296.176 262.42C296.065 262.42 295.975 262.51 295.975 262.621C295.975 262.731 296.065 262.821 296.176 262.821Z" fill="black"/>
<path opacity="0.8" d="M292.641 262.336C292.752 262.336 292.841 262.246 292.841 262.136C292.841 262.025 292.752 261.935 292.641 261.935C292.53 261.935 292.44 262.025 292.44 262.136C292.44 262.246 292.53 262.336 292.641 262.336Z" fill="black"/>
<path opacity="0.8" d="M293.812 262.621C293.923 262.621 294.013 262.531 294.013 262.42C294.013 262.31 293.923 262.22 293.812 262.22C293.701 262.22 293.611 262.31 293.611 262.42C293.611 262.531 293.701 262.621 293.812 262.621Z" fill="black"/>
<path opacity="0.8" d="M290.453 261.935C290.564 261.935 290.653 261.846 290.653 261.735C290.653 261.625 290.564 261.535 290.453 261.535C290.342 261.535 290.252 261.625 290.252 261.735C290.252 261.846 290.342 261.935 290.453 261.935Z" fill="black"/>
<path opacity="0.8" d="M291.507 262.136C291.617 262.136 291.707 262.046 291.707 261.935C291.707 261.825 291.617 261.735 291.507 261.735C291.396 261.735 291.306 261.825 291.306 261.935C291.306 262.046 291.396 262.136 291.507 262.136Z" fill="black"/>
<path opacity="0.8" d="M289.298 261.535C289.409 261.535 289.499 261.445 289.499 261.335C289.499 261.224 289.409 261.134 289.298 261.134C289.187 261.134 289.098 261.224 289.098 261.335C289.098 261.445 289.187 261.535 289.298 261.535Z" fill="black"/>
<path opacity="0.8" d="M302.12 262.22C302.231 262.22 302.321 262.131 302.321 262.02C302.321 261.909 302.231 261.82 302.12 261.82C302.009 261.82 301.919 261.909 301.919 262.02C301.919 262.131 302.009 262.22 302.12 262.22Z" fill="black"/>
<path opacity="0.8" d="M299.793 262.621C299.904 262.621 299.994 262.531 299.994 262.42C299.994 262.31 299.904 262.22 299.793 262.22C299.682 262.22 299.592 262.31 299.592 262.42C299.592 262.531 299.682 262.621 299.793 262.621Z" fill="black"/>
<path opacity="0.8" d="M297.268 262.821C297.379 262.821 297.468 262.731 297.468 262.621C297.468 262.51 297.379 262.42 297.268 262.42C297.157 262.42 297.067 262.51 297.067 262.621C297.067 262.731 297.157 262.821 297.268 262.821Z" fill="black"/>
<path opacity="0.8" d="M294.971 262.821C295.082 262.821 295.171 262.731 295.171 262.621C295.171 262.51 295.082 262.42 294.971 262.42C294.86 262.42 294.77 262.51 294.77 262.621C294.77 262.731 294.86 262.821 294.971 262.821Z" fill="black"/>
</g>
</svg>
